<svg width="1652" height="855" viewBox="0 0 1652 855" fill="none" xmlns="http://www.w3.org/2000/svg">
<g filter="url(#filter0_d_0_461)">
<path fill-rule="evenodd" clip-rule="evenodd" d="M549.1 395.8C550.757 395.8 552.1 397.143 552.1 398.8C552.1 400.398 550.851 401.704 549.276 401.795L549.1 401.8H420.2C345.683 401.8 292.765 461.089 300.814 534.886L301.077 537.127L325.477 731.727C325.683 733.371 324.517 734.871 322.873 735.077C321.288 735.275 319.837 734.199 319.55 732.647L319.523 732.473L295.123 537.873C285.394 460.245 340.203 397.075 417.84 395.819L420.2 395.8H549.1Z" fill="#5928E5"/>
<path fill-rule="evenodd" clip-rule="evenodd" d="M637.559 333.033C638.823 332.845 640.068 333.479 640.66 334.612L644.158 341.308C644.286 341.553 644.379 341.813 644.436 342.083L644.471 342.287L648.671 372.487C648.767 373.176 648.62 373.875 648.26 374.465L648.145 374.639L632.145 397.139C631.185 398.489 629.312 398.805 627.961 397.845C626.663 396.922 626.321 395.154 627.15 393.819L627.255 393.661L642.564 372.133L638.6 343.629L636.332 339.288L636.012 339.338C597.033 345.433 572.64 356.558 561.463 371.837L561.121 372.311C551.405 386.002 552.151 403.193 562.283 423.458C563.17 425.233 562.122 427.364 560.175 427.744C494.321 440.606 440.731 495.832 408.757 575.122C379.95 646.559 373.473 727.893 392.126 780.092L395.156 788.651C401.568 806.678 405.456 815.431 411.244 823.212C418.683 833.212 427.903 838.28 440.628 838.4C442.285 838.416 443.615 839.771 443.6 841.428C443.584 843.085 442.229 844.415 440.572 844.4C425.894 844.262 414.949 838.246 406.43 826.794L405.947 826.136C400.118 818.119 396.165 809.273 390.024 792.123L386.601 782.464C386.559 782.345 386.517 782.227 386.475 782.11C367.28 728.393 373.875 645.582 403.193 572.878C435.203 493.496 488.698 437.441 554.953 422.706L555.243 422.642L555.042 422.199C545.926 401.973 545.716 384.042 555.897 369.313L556.229 368.839C568.611 351.392 595.294 339.319 637.559 333.033Z" fill="#5928E5"/>
<path fill-rule="evenodd" clip-rule="evenodd" d="M675.3 476.3C675.3 476.1 675.3 475.9 675.3 475.7C680 476.2 684.6 476.2 689.1 472.4C700.1 462.9 704 460 704 460C704 460 705 461.2 706.8 463.2C709 459.2 711.2 455 713.5 450.8C666 414 629.7 395.4 629.7 395.4L627 393.5L609.6 414.8C609.6 414.8 638 434.3 675.3 476.3Z" fill="#EF616D"/>
<path fill-rule="evenodd" clip-rule="evenodd" d="M904.9 821.5C904.9 821.5 828.9 617.1 838.6 553.8C843.9 519.2 835.6 480.1 824.2 449.8L802.4 451.2L776.3 512.8C778 513.2 779.7 513.6 781.4 513.8C781.4 513.8 780.4 520.3 777.9 535.1C776.2 545 779.1 546.1 781.3 553C784.2 557.6 786.4 562.8 784 570.9C783.2 573.5 781.3 598.3 777 631.9C785 648.8 792.6 666.8 799.8 686C845.9 808.9 841.1 822.3 841.1 822.3L904.9 821.5Z" fill="#EF616D"/>
<path fill-rule="evenodd" clip-rule="evenodd" d="M809.062 339.928C809.599 338.36 811.305 337.525 812.872 338.062C843.259 348.471 864.469 364.911 878.309 386.374C888.34 401.932 893.679 418.123 897.218 438.585L897.362 439.433L899.387 440.978C996.203 515.123 1065.38 598.728 1111.35 686.446L1112.75 689.132C1130.03 722.485 1143.05 754.766 1152.41 785.272C1158.98 806.721 1163.07 824.959 1165.27 839.347C1165.52 840.985 1164.39 842.515 1162.75 842.766C1161.12 843.016 1159.58 841.891 1159.33 840.253L1159.1 838.754C1156.89 824.882 1152.93 807.449 1146.67 787.031C1137.42 756.862 1124.54 724.916 1107.42 691.893C1061.4 603.074 991.43 518.4 892.786 443.489C892.175 443.025 891.765 442.345 891.64 441.588C888.226 420.901 883.102 404.88 873.266 389.626C860.163 369.304 840.048 353.713 810.928 343.738C809.36 343.201 808.525 341.495 809.062 339.928Z" fill="#5928E5"/>
<path fill-rule="evenodd" clip-rule="evenodd" d="M856.847 539.103C858.988 539.181 860.674 540.928 860.7 543.047L860.695 543.305L860.675 543.967C860.657 544.574 860.64 545.289 860.623 546.107C860.173 568.632 861.306 595.899 865.34 621.98C867.168 633.792 869.515 644.587 872.426 654.133C873.07 656.247 871.88 658.482 869.767 659.126C867.654 659.77 865.418 658.58 864.774 656.467C861.743 646.526 859.316 635.367 857.434 623.203C853.394 597.085 852.211 569.939 852.601 547.251L852.66 544.404L852.703 542.953C852.781 540.812 854.528 539.127 856.647 539.1L856.847 539.103Z" fill="#5928E5"/>
<path fill-rule="evenodd" clip-rule="evenodd" d="M891.6 440.3C892.3 444.6 892.9 448.5 893.4 451.9C899.5 491.7 886.4 518.2 877.7 536.5C901 520 916.8 488.6 924.7 464.7C915.2 457.1 902.1 448.1 891.6 440.3Z" fill="#5928E5"/>
<path fill-rule="evenodd" clip-rule="evenodd" d="M562 423C545.7 426.3 518.9 434.5 499.5 447.8C513 455.2 579.9 495.2 634.5 519.2C634.9 519 637.9 514 639.4 512C609.2 488.1 577.4 453.9 562 423Z" fill="#5928E5"/>
<path fill-rule="evenodd" clip-rule="evenodd" d="M605.212 260.805C606.811 260.37 608.459 261.313 608.895 262.912C609.314 264.454 608.452 266.042 606.957 266.543L606.433 266.699C606.274 266.748 606.073 266.812 605.836 266.89C605.02 267.159 604.106 267.492 603.117 267.894C600.289 269.042 597.462 270.492 594.84 272.257C583.799 279.692 579.827 289.879 586.612 304.218C590.871 313.226 596.818 317.049 604.41 317.013C610.457 316.983 617.175 314.561 624.519 310.391C625.96 309.573 627.791 310.078 628.609 311.519C629.427 312.96 628.922 314.791 627.481 315.609C619.322 320.242 611.736 322.977 604.44 323.012C594.495 323.061 586.433 317.879 581.188 306.783C573.009 289.497 578.176 276.246 591.489 267.281C594.483 265.264 597.672 263.629 600.86 262.334C602.784 261.553 604.3 261.054 605.212 260.805Z" fill="#5928E5"/>
<path fill-rule="evenodd" clip-rule="evenodd" d="M701.654 124.618C695.423 125.868 690.082 127.355 685.634 128.855L685.033 129.06C647.252 141.922 624.412 164.46 614.07 193.846C606.49 215.382 606.261 238.235 610.399 259.559C610.92 262.24 611.475 264.677 612.034 266.841L612.281 267.778L612.449 268.396C612.557 268.786 612.655 269.133 612.743 269.434L612.905 269.979C613.018 271.931 614.963 273.275 616.849 272.646L627.125 269.22L627.265 269.327C635.828 276.023 658.833 304.997 666.244 319.096C667.066 320.658 669.052 321.177 670.533 320.217L671.415 319.661L672.325 319.102C672.648 318.905 672.992 318.697 673.356 318.48L674.11 318.032C677.095 316.265 680.609 314.294 684.624 312.168C696.117 306.084 709.31 299.995 724 294.311L725.883 293.587C737.839 289.03 750.276 284.946 763.138 281.447L765.155 280.905L767.269 280.44C767.748 280.336 768.253 280.227 768.781 280.115L769.869 279.885C773.596 279.102 777.548 278.319 781.548 277.589C784.732 277.007 787.816 276.484 790.753 276.032L792.762 275.731C800.003 274.675 805.856 274.155 809.791 274.298C811.638 274.365 813.106 272.762 812.877 270.928C808.103 232.736 799.056 193.662 786.091 160.799C776.16 135.602 756.345 123.732 730.39 122.305C720.996 121.788 711.296 122.684 701.654 124.618ZM730.06 128.295C753.843 129.604 771.52 140.192 780.509 163L781.095 164.497C792.961 195.032 801.453 230.976 806.243 266.443L806.491 268.309L806.413 268.312C802.009 268.466 796.411 269.091 789.84 270.102C786.845 270.563 783.707 271.095 780.471 271.686C776.921 272.334 773.413 273.023 770.062 273.716L767.532 274.246C766.818 274.398 766.145 274.543 765.519 274.68L763.736 275.075L763.628 275.101C749.147 278.958 735.191 283.547 721.834 288.715C706.917 294.488 693.51 300.674 681.816 306.865L680.203 307.725C676.767 309.57 673.712 311.296 671.054 312.868L669.997 313.497L669.888 313.308C660.272 296.834 637.078 268.171 629.163 263.339L628.986 263.239C628.268 262.865 627.425 262.796 626.651 263.054L618 265.937C617.419 263.75 616.835 261.228 616.29 258.416C612.337 238.049 612.555 216.22 619.729 195.838C629.363 168.467 650.497 147.434 685.898 135.108L686.975 134.737C691.313 133.246 696.605 131.75 702.834 130.501C712.012 128.66 721.219 127.809 730.06 128.295Z" fill="#5928E5"/>
<path fill-rule="evenodd" clip-rule="evenodd" d="M626.647 262.955C627.487 262.674 628.407 262.778 629.163 263.239C636.999 268.023 659.81 296.163 669.595 312.71L669.997 313.397L671.054 312.768L672.309 312.031C675.088 310.413 678.263 308.646 681.816 306.765C693.51 300.574 706.917 294.388 721.834 288.615C734.555 283.693 747.819 279.296 761.563 275.557L763.628 275.001L765.051 274.681L767.52 274.146L768.62 273.912C772.387 273.118 776.381 272.323 780.43 271.582C783.218 271.071 785.933 270.603 788.547 270.188L789.846 269.985C798.493 268.653 805.452 267.994 810.231 268.203C811.611 268.263 812.771 269.258 813.042 270.612L813.182 271.347L813.46 272.9C813.525 273.271 813.592 273.664 813.66 274.078L813.889 275.484C814.269 277.876 814.645 280.516 815 283.37C817.1 300.251 817.7 317.768 815.884 334.195C815.818 334.787 815.75 335.377 815.678 335.964C815.477 337.609 813.981 338.779 812.336 338.578C810.691 338.377 809.521 336.881 809.722 335.236C809.791 334.672 809.857 334.105 809.92 333.535C811.678 317.64 811.092 300.565 809.046 284.11L808.836 282.465C808.518 280.037 808.186 277.786 807.853 275.738L807.591 274.171L807.289 274.177C803.253 274.268 797.85 274.84 791.427 275.813L790.759 275.915C787.809 276.37 784.711 276.897 781.511 277.483C778.018 278.123 774.563 278.804 771.263 279.489L768.255 280.124L765.833 280.653L765.106 280.816L763.138 281.347C750.276 284.846 737.839 288.93 725.883 293.487L724 294.211C709.311 299.895 696.117 305.984 684.624 312.068L683.045 312.91C679.94 314.577 677.159 316.141 674.714 317.576L673.356 318.38C672.992 318.597 672.649 318.805 672.325 319.002L670.756 319.974C670.66 320.035 670.586 320.082 670.533 320.117C669.052 321.077 667.066 320.558 666.245 318.996C658.907 305.038 636.286 276.501 627.526 269.435L627.127 269.121L610.606 274.654L616.162 285.892L620.425 294.468C623.62 300.88 626.798 307.222 629.887 313.341L634.166 321.787C643.2 339.544 650.034 352.491 653.774 358.759C665.724 378.712 672.765 384.656 699.783 395.302C708.862 398.817 720.432 400.8 732.3 400.8C733.957 400.8 735.3 402.143 735.3 403.8C735.3 405.457 733.957 406.8 732.3 406.8C719.718 406.8 707.417 404.691 697.6 400.891L695.11 399.9C669.391 389.551 661.216 382.593 649.377 363.086L648.624 361.837C644.841 355.497 638.106 342.751 629.195 325.247L626.58 320.097C622.512 312.068 618.257 303.581 613.988 295.003L610.323 287.623L603.707 274.221C602.934 272.646 603.674 270.762 605.278 270.117L605.447 270.055L626.647 262.955Z" fill="#5928E5"/>
<path fill-rule="evenodd" clip-rule="evenodd" d="M609 282C609 282 589.9 259.8 576.1 233.3C563.1 208.4 568.5 177.5 590 159.5C608 144.4 625.2 148.4 625.2 148.4C625.2 148.4 594.1 116.8 618.6 75.8C627.2 61.4 641.5 51 658 47.4C698.2 38.6 719 69.2 719 69.2C719 69.2 742.1 -20 841.3 4.6C851.3 7.1 864.5 17.7 871.5 25.3C913.8 71.4 834.2 158.4 785.8 175.8C732.7 195 698.5 194 677.6 185C692.7 189.6 693.2 274.3 609 282Z" fill="#5928E5"/>
<path fill-rule="evenodd" clip-rule="evenodd" d="M760.89 250.657C762.892 249.902 765.12 250.859 765.966 252.799L766.043 252.99L784.843 302.89C785.81 305.456 783.969 308.19 781.265 308.297L781.079 308.3L761.779 308.2C759.57 308.188 757.789 306.388 757.8 304.179C757.811 302.037 759.504 300.297 761.621 300.204L761.821 300.2L775.306 300.27L758.557 255.81C757.802 253.808 758.759 251.58 760.699 250.734L760.89 250.657Z" fill="#5928E5"/>
<path fill-rule="evenodd" clip-rule="evenodd" d="M752 347.5C757.247 347.5 761.5 343.247 761.5 338C761.5 332.753 757.247 328.5 752 328.5C746.753 328.5 742.5 332.753 742.5 338C742.5 343.247 746.753 347.5 752 347.5Z" fill="#5928E5"/>
<path fill-rule="evenodd" clip-rule="evenodd" d="M784.506 258.431C787.399 257.707 788.832 253.472 787.706 248.971C786.58 244.471 783.322 241.409 780.428 242.133C777.535 242.857 776.103 247.092 777.229 251.593C778.355 256.093 781.613 259.155 784.506 258.431Z" fill="#5928E5"/>
<path fill-rule="evenodd" clip-rule="evenodd" d="M733.614 270.242C736.507 269.518 737.94 265.283 736.814 260.782C735.688 256.282 732.43 253.22 729.537 253.944C726.644 254.668 725.211 258.903 726.337 263.403C727.463 267.904 730.721 270.965 733.614 270.242Z" fill="#5928E5"/>
<path fill-rule="evenodd" clip-rule="evenodd" d="M718.617 211.718C720.816 211.507 722.77 213.118 722.982 215.317C723.193 217.516 721.582 219.47 719.383 219.682C713.896 220.209 709.617 222.411 706.303 225.784C704.957 227.154 703.867 228.626 703.018 230.088L702.79 230.491C702.474 231.064 702.27 231.498 702.17 231.742L702.141 231.817C701.358 233.883 699.049 234.923 696.983 234.141C694.917 233.358 693.877 231.049 694.659 228.983C694.909 228.325 695.377 227.317 696.098 226.075C697.267 224.06 698.753 222.054 700.596 220.178C705.175 215.518 711.166 212.435 718.617 211.718Z" fill="#5928E5"/>
<path fill-rule="evenodd" clip-rule="evenodd" d="M768.661 197.804C772.302 196.54 776.063 195.992 779.743 196.619C784.284 197.393 788.136 199.919 790.816 204.319C791.965 206.206 791.367 208.667 789.481 209.816C787.594 210.965 785.133 210.367 783.984 208.481C782.533 206.099 780.702 204.898 778.4 204.506C776.249 204.139 773.761 204.502 771.284 205.361C770.642 205.584 770.056 205.822 769.543 206.057L769.094 206.271L769.012 206.314C767.071 207.369 764.642 206.652 763.586 204.712C762.531 202.771 763.248 200.342 765.188 199.286L765.533 199.106C766.276 198.728 767.34 198.262 768.661 197.804Z" fill="#5928E5"/>
<path fill-rule="evenodd" clip-rule="evenodd" d="M1358.8 563.4H970C964.9 563.4 960.5 566.9 959.3 571.9L905.2 800.7H764.3C764.3 800.7 756.5 841 802 841C825.1 841 1298.4 841 1298.4 841C1303.5 841 1307.9 837.5 1309.1 832.5L1369.5 576.9C1371.1 570 1365.9 563.4 1358.8 563.4Z" fill="#5928E5"/>
<path fill-rule="evenodd" clip-rule="evenodd" d="M1204.5 224.6H1201.4C1198.6 224.6 1196.4 222.4 1196.4 219.6V211.7C1196.4 208.9 1198.6 206.7 1201.4 206.7H1204.5C1207.3 206.7 1209.5 208.9 1209.5 211.7V219.6C1209.5 222.4 1207.3 224.6 1204.5 224.6Z" fill="#EF616D"/>
<path fill-rule="evenodd" clip-rule="evenodd" d="M1186.4 224.6H1106.6C1103.8 224.6 1101.6 222.4 1101.6 219.6V211.7C1101.6 208.9 1103.8 206.7 1106.6 206.7H1186.4C1189.2 206.7 1191.4 208.9 1191.4 211.7V219.6C1191.4 222.4 1189.2 224.6 1186.4 224.6Z" fill="#5928E5"/>
<path fill-rule="evenodd" clip-rule="evenodd" d="M1194.6 307.7H1106.7C1103.9 307.7 1101.7 305.5 1101.7 302.7V294.8C1101.7 292 1103.9 289.8 1106.7 289.8H1194.6C1197.4 289.8 1199.6 292 1199.6 294.8V302.7C1199.6 305.5 1197.3 307.7 1194.6 307.7Z" fill="#5928E5"/>
<path fill-rule="evenodd" clip-rule="evenodd" d="M1273.3 280H1131.4C1128.6 280 1126.4 277.8 1126.4 275V267.1C1126.4 264.3 1128.6 262.1 1131.4 262.1H1273.3C1276.1 262.1 1278.3 264.3 1278.3 267.1V275C1278.3 277.8 1276.1 280 1273.3 280Z" fill="#EF616D"/>
<path fill-rule="evenodd" clip-rule="evenodd" d="M1363.8 280H1291.8C1289 280 1286.8 277.8 1286.8 275V267.1C1286.8 264.3 1289 262.1 1291.8 262.1H1363.8C1366.6 262.1 1368.8 264.3 1368.8 267.1V275C1368.8 277.8 1366.6 280 1363.8 280Z" fill="#EF616D"/>
<path fill-rule="evenodd" clip-rule="evenodd" d="M1391.6 252.4H1388.5C1385.7 252.4 1383.5 250.2 1383.5 247.4V239.5C1383.5 236.7 1385.7 234.5 1388.5 234.5H1391.6C1394.4 234.5 1396.6 236.7 1396.6 239.5V247.4C1396.6 250.1 1394.4 252.4 1391.6 252.4Z" fill="#5928E5"/>
<path fill-rule="evenodd" clip-rule="evenodd" d="M1253.7 252.3H1106.6C1103.8 252.3 1101.6 250.1 1101.6 247.3V239.4C1101.6 236.6 1103.8 234.4 1106.6 234.4H1253.7C1256.5 234.4 1258.7 236.6 1258.7 239.4V247.3C1258.7 250.1 1256.5 252.3 1253.7 252.3Z" fill="#5928E5"/>
<path fill-rule="evenodd" clip-rule="evenodd" d="M1300.1 224.6H1220.3C1217.5 224.6 1215.3 222.4 1215.3 219.6V211.7C1215.3 208.9 1217.5 206.7 1220.3 206.7H1300.1C1302.9 206.7 1305.1 208.9 1305.1 211.7V219.6C1305.1 222.4 1302.8 224.6 1300.1 224.6Z" fill="#5928E5"/>
<path fill-rule="evenodd" clip-rule="evenodd" d="M1371.5 252.4H1270.7C1267.9 252.4 1265.7 250.2 1265.7 247.4V239.4C1265.7 236.6 1267.9 234.4 1270.7 234.4H1371.5C1374.3 234.4 1376.5 236.6 1376.5 239.4V247.4C1376.5 250.1 1374.3 252.4 1371.5 252.4Z" fill="#EF616D"/>
<path fill-rule="evenodd" clip-rule="evenodd" d="M1186.4 404H1106.6C1103.8 404 1101.6 401.8 1101.6 399V391.1C1101.6 388.3 1103.8 386.1 1106.6 386.1H1186.4C1189.2 386.1 1191.4 388.3 1191.4 391.1V399C1191.4 401.8 1189.2 404 1186.4 404Z" fill="#5928E5"/>
<path fill-rule="evenodd" clip-rule="evenodd" d="M1194.6 487.1H1106.7C1103.9 487.1 1101.7 484.9 1101.7 482.1V474.2C1101.7 471.4 1103.9 469.2 1106.7 469.2H1194.6C1197.4 469.2 1199.6 471.4 1199.6 474.2V482.1C1199.6 484.8 1197.3 487.1 1194.6 487.1Z" fill="#5928E5"/>
<path fill-rule="evenodd" clip-rule="evenodd" d="M1273.3 459.4H1131.4C1128.6 459.4 1126.4 457.2 1126.4 454.4V446.5C1126.4 443.7 1128.6 441.5 1131.4 441.5H1273.3C1276.1 441.5 1278.3 443.7 1278.3 446.5V454.4C1278.3 457.2 1276.1 459.4 1273.3 459.4Z" fill="#EF616D"/>
<path fill-rule="evenodd" clip-rule="evenodd" d="M1363.8 459.4H1291.8C1289 459.4 1286.8 457.2 1286.8 454.4V446.5C1286.8 443.7 1289 441.5 1291.8 441.5H1363.8C1366.6 441.5 1368.8 443.7 1368.8 446.5V454.4C1368.8 457.2 1366.6 459.4 1363.8 459.4Z" fill="#EF616D"/>
<path fill-rule="evenodd" clip-rule="evenodd" d="M1391.6 431.8H1388.5C1385.7 431.8 1383.5 429.6 1383.5 426.8V418.9C1383.5 416.1 1385.7 413.9 1388.5 413.9H1391.6C1394.4 413.9 1396.6 416.1 1396.6 418.9V426.8C1396.6 429.5 1394.4 431.8 1391.6 431.8Z" fill="#5928E5"/>
<path fill-rule="evenodd" clip-rule="evenodd" d="M1414.4 404H1411.3C1408.5 404 1406.3 401.8 1406.3 399V391.1C1406.3 388.3 1408.5 386.1 1411.3 386.1H1414.4C1417.2 386.1 1419.4 388.3 1419.4 391.1V399C1419.4 401.8 1417.2 404 1414.4 404Z" fill="#5928E5"/>
<path fill-rule="evenodd" clip-rule="evenodd" d="M1253.7 431.7H1106.6C1103.8 431.7 1101.6 429.5 1101.6 426.7V418.8C1101.6 416 1103.8 413.8 1106.6 413.8H1253.7C1256.5 413.8 1258.7 416 1258.7 418.8V426.7C1258.7 429.5 1256.5 431.7 1253.7 431.7Z" fill="#5928E5"/>
<path fill-rule="evenodd" clip-rule="evenodd" d="M1300.1 404H1201.5C1198.7 404 1196.5 401.8 1196.5 399V391.1C1196.5 388.3 1198.7 386.1 1201.5 386.1H1300.1C1302.9 386.1 1305.1 388.3 1305.1 391.1V399C1305.1 401.8 1302.8 404 1300.1 404Z" fill="#EF616D"/>
<path fill-rule="evenodd" clip-rule="evenodd" d="M1396.8 404H1317C1314.2 404 1312 401.8 1312 399V391.1C1312 388.3 1314.2 386.1 1317 386.1H1396.8C1399.6 386.1 1401.8 388.3 1401.8 391.1V399C1401.8 401.8 1399.6 404 1396.8 404Z" fill="#EF616D"/>
<path fill-rule="evenodd" clip-rule="evenodd" d="M1204.5 377.2H1201.4C1198.6 377.2 1196.4 375 1196.4 372.2V364.3C1196.4 361.5 1198.6 359.3 1201.4 359.3H1204.5C1207.3 359.3 1209.5 361.5 1209.5 364.3V372.2C1209.5 374.9 1207.3 377.2 1204.5 377.2Z" fill="#EF616D"/>
<path fill-rule="evenodd" clip-rule="evenodd" d="M1186.4 377.2H1106.6C1103.8 377.2 1101.6 375 1101.6 372.2V364.3C1101.6 361.5 1103.8 359.3 1106.6 359.3H1186.4C1189.2 359.3 1191.4 361.5 1191.4 364.3V372.2C1191.4 374.9 1189.2 377.2 1186.4 377.2Z" fill="#5928E5"/>
<path fill-rule="evenodd" clip-rule="evenodd" d="M1300.1 377.2H1220.3C1217.5 377.2 1215.3 375 1215.3 372.2V364.3C1215.3 361.5 1217.5 359.3 1220.3 359.3H1300.1C1302.9 359.3 1305.1 361.5 1305.1 364.3V372.2C1305.1 374.9 1302.8 377.2 1300.1 377.2Z" fill="#5928E5"/>
<path fill-rule="evenodd" clip-rule="evenodd" d="M1371.5 431.8H1270.7C1267.9 431.8 1265.7 429.6 1265.7 426.8V418.8C1265.7 416 1267.9 413.8 1270.7 413.8H1371.5C1374.3 413.8 1376.5 416 1376.5 418.8V426.8C1376.5 429.5 1374.3 431.8 1371.5 431.8Z" fill="#EF616D"/>
<path fill-rule="evenodd" clip-rule="evenodd" d="M1495.67 731.509C1511.73 730.282 1525.68 742.33 1526.79 758.371C1528.02 774.431 1515.97 788.377 1499.85 789.496C1497.33 789.622 1495.28 789.571 1493.26 789.267C1491.62 789.021 1490.49 787.493 1490.73 785.855C1490.98 784.216 1492.51 783.087 1494.15 783.333C1495.72 783.569 1497.4 783.611 1499.49 783.507C1512.23 782.622 1521.78 771.568 1520.81 758.808C1519.92 746.068 1508.87 736.518 1496.15 737.49C1494.07 737.663 1492 738.094 1490.05 738.746C1488.48 739.27 1486.78 738.42 1486.25 736.849C1485.73 735.277 1486.58 733.578 1488.15 733.054C1490.55 732.253 1493.09 731.724 1495.67 731.509Z" fill="#5928E5"/>
<path fill-rule="evenodd" clip-rule="evenodd" d="M1387.1 691.48C1388.33 690.47 1390.13 690.604 1391.2 691.755L1391.32 691.898L1428.62 737.398C1429.67 738.679 1429.48 740.57 1428.2 741.62C1426.97 742.63 1425.17 742.496 1424.1 741.345L1423.98 741.202L1386.68 695.702C1385.63 694.421 1385.82 692.53 1387.1 691.48Z" fill="#5928E5"/>
<path fill-rule="evenodd" clip-rule="evenodd" d="M1383.5 725.2V811C1383.5 827.6 1396.9 841 1413.5 841H1464.1C1480.7 841 1494.1 827.6 1494.1 811V725.2H1383.5ZM1428.3 788C1429 788.5 1429.3 789 1429.3 789.8C1429.3 790.4 1429.1 790.8 1428.7 791.2C1428.3 791.6 1427.8 791.8 1427.3 791.8C1426.9 791.8 1426.6 791.7 1426.3 791.5L1406.3 779.5C1405.6 779 1405.2 778.4 1405.2 777.7C1405.2 777 1405.6 776.4 1406.3 775.9L1426.3 763.9C1426.6 763.7 1426.9 763.6 1427.3 763.6C1427.9 763.6 1428.3 763.8 1428.7 764.2C1429.1 764.6 1429.3 765.1 1429.3 765.6C1429.3 766.3 1429 766.9 1428.3 767.4L1411.1 777.7L1428.3 788ZM1453.3 758.4L1437.2 798.6C1437.1 798.8 1437 799 1436.8 799.2C1436.4 799.6 1435.9 799.8 1435.4 799.8C1434.8 799.8 1434.4 799.6 1434 799.2C1433.6 798.8 1433.4 798.3 1433.4 797.8C1433.4 797.5 1433.5 797.2 1433.6 796.9L1449.7 756.7C1449.8 756.5 1449.9 756.3 1450.1 756.1C1450.5 755.7 1451 755.5 1451.5 755.5C1452.1 755.5 1452.5 755.7 1452.9 756.1C1453.3 756.5 1453.5 757 1453.5 757.5C1453.5 757.9 1453.4 758.2 1453.3 758.4ZM1480.5 779.5L1460.5 791.5C1460.2 791.7 1459.9 791.8 1459.5 791.8C1458.9 791.8 1458.5 791.6 1458.1 791.2C1457.7 790.8 1457.5 790.3 1457.5 789.8C1457.5 789.1 1457.8 788.5 1458.5 788L1475.7 777.7L1458.5 767.4C1457.8 766.9 1457.5 766.4 1457.5 765.6C1457.5 765 1457.7 764.6 1458.1 764.2C1458.5 763.8 1459 763.6 1459.5 763.6C1459.9 763.6 1460.2 763.7 1460.5 763.9L1480.5 775.9C1481.2 776.4 1481.6 777 1481.6 777.7C1481.6 778.4 1481.3 779.1 1480.5 779.5Z" fill="#5928E5"/>
<path fill-rule="evenodd" clip-rule="evenodd" d="M246.013 731.506C247.955 731.384 249.689 731.412 251.297 731.626C252.939 731.845 254.093 733.354 253.874 734.996C253.655 736.639 252.146 737.793 250.504 737.574C249.327 737.417 247.969 737.395 246.408 737.493C233.703 738.375 224.205 749.402 225.093 762.192C225.978 774.932 237.032 784.482 249.772 783.509C251.424 783.383 252.865 784.619 252.991 786.272C253.117 787.924 251.881 789.365 250.229 789.491C234.169 790.718 220.223 778.67 219.107 762.608C217.99 746.525 229.968 732.62 246.013 731.506Z" fill="#5928E5"/>
<path fill-rule="evenodd" clip-rule="evenodd" d="M246.6 725.2V811C246.6 827.6 260 841 276.6 841H327.2C343.8 841 357.2 827.6 357.2 811V725.2H246.6ZM291.3 788C292 788.5 292.3 789 292.3 789.8C292.3 790.4 292.1 790.8 291.7 791.2C291.3 791.6 290.8 791.8 290.3 791.8C289.9 791.8 289.6 791.7 289.3 791.5L269.3 779.5C268.6 779 268.2 778.4 268.2 777.7C268.2 777 268.6 776.4 269.3 775.9L289.3 763.9C289.6 763.7 289.9 763.6 290.3 763.6C290.9 763.6 291.3 763.8 291.7 764.2C292.1 764.6 292.3 765.1 292.3 765.6C292.3 766.3 292 766.9 291.3 767.4L274.1 777.7L291.3 788ZM333.5 779.5L313.5 791.5C313.2 791.7 312.9 791.8 312.5 791.8C311.9 791.8 311.5 791.6 311.1 791.2C310.7 790.8 310.5 790.3 310.5 789.8C310.5 789.1 310.8 788.5 311.5 788L328.7 777.7L311.5 767.4C310.8 766.9 310.5 766.4 310.5 765.6C310.5 765 310.7 764.6 311.1 764.2C311.5 763.8 312 763.6 312.5 763.6C312.9 763.6 313.2 763.7 313.5 763.9L333.5 775.9C334.2 776.4 334.6 777 334.6 777.7C334.6 778.4 334.2 779.1 333.5 779.5Z" fill="#5928E5"/>
<path fill-rule="evenodd" clip-rule="evenodd" d="M416.949 663.174C418.346 662.403 420.09 662.862 420.933 664.192L421.026 664.349L434.726 689.149C435.527 690.6 435.001 692.425 433.551 693.226C432.154 693.997 430.41 693.538 429.567 692.208L429.474 692.051L415.774 667.251C414.973 665.8 415.499 663.975 416.949 663.174Z" fill="#5928E5"/>
<path fill-rule="evenodd" clip-rule="evenodd" d="M477.5 690.3C479.157 690.3 480.5 691.643 480.5 693.3C480.5 694.898 479.251 696.204 477.676 696.295L477.5 696.3H401.7C400.043 696.3 398.7 694.957 398.7 693.3C398.7 691.702 399.949 690.396 401.524 690.305L401.7 690.3H477.5Z" fill="#5928E5"/>
<path fill-rule="evenodd" clip-rule="evenodd" d="M467 774.1C465.9 773 464.5 772.4 462.8 772.4C461.2 772.4 459.8 773 458.6 774.1C457.5 775.2 456.9 776.6 456.9 778.3C456.9 779.9 457.5 781.3 458.6 782.5C459.7 783.6 461.1 784.2 462.8 784.2C464.4 784.2 465.8 783.6 467 782.5C468.1 781.4 468.7 780 468.7 778.3C468.7 776.6 468.2 775.2 467 774.1Z" fill="#5928E5"/>
<path fill-rule="evenodd" clip-rule="evenodd" d="M462.9 765.3C464.5 765.3 465.9 764.7 467.1 763.6C468.2 762.5 468.8 761.1 468.8 759.4C468.8 757.8 468.2 756.4 467.1 755.2C466 754.1 464.6 753.5 462.9 753.5C461.3 753.5 459.9 754.1 458.7 755.2C457.6 756.3 457 757.7 457 759.4C457 761 457.6 762.4 458.7 763.6C459.9 764.7 461.2 765.3 462.9 765.3Z" fill="#5928E5"/>
<path fill-rule="evenodd" clip-rule="evenodd" d="M467 801.2C468.1 800.1 468.7 798.7 468.7 797C468.7 795.4 468.1 794 467 792.8C465.9 791.7 464.5 791.1 462.8 791.1C461.2 791.1 459.8 791.7 458.6 792.8C457.5 793.9 456.9 795.3 456.9 797C456.9 798.6 457.5 800 458.6 801.2C459.7 802.3 461.1 802.9 462.8 802.9C464.5 802.9 465.9 802.3 467 801.2Z" fill="#5928E5"/>
<path fill-rule="evenodd" clip-rule="evenodd" d="M485 711.4L471.7 694.1H407.6L394.3 711.4C393 713.1 392.3 715 392.3 717V822.3C392.3 825.6 394.1 828.6 397.2 830.6C401.3 833.2 406.6 837.1 406.9 840.9H472.2C472.6 837.1 477.8 833.1 481.9 830.6C485 828.7 486.8 825.6 486.8 822.3V717C486.9 715 486.3 713 485 711.4ZM457.2 731.6L464.2 719.9C464.5 719.5 464.8 719.3 465.3 719.3C465.7 719.3 466.1 719.5 466.4 719.9L473.4 731.6C473.5 731.8 473.5 732 473.5 732.2C473.5 732.5 473.4 732.8 473.2 733C473 733.2 472.7 733.3 472.4 733.3C472 733.3 471.6 733.1 471.4 732.7L465.4 722.7L459.4 732.7C459.1 733.1 458.8 733.3 458.4 733.3C458.1 733.3 457.8 733.2 457.6 733C457.4 732.8 457.3 732.5 457.3 732.2C457 731.9 457.1 731.7 457.2 731.6ZM457.6 736C457.8 735.9 458 735.8 458.3 735.8C458.6 735.8 458.9 735.9 459.1 736.1C459.3 736.3 459.4 736.6 459.4 736.9C459.4 737.2 459.3 737.5 459.1 737.7C458.9 737.9 458.7 738 458.7 738.1C457.6 739.2 457 740.6 457 742.3C457 743.9 457.5 745.2 458.5 746.2C458.8 746.4 459.1 746.6 459.5 746.6C460 746.6 460.3 746.3 460.4 745.9L462.8 738.7C463.1 737.8 463.5 737.2 463.8 736.8C464.5 736.1 465.3 735.8 466.3 735.8C467.3 735.8 468.1 736.2 468.8 736.9C470.2 738.3 471 740.1 471 742.4C471 744.9 470 747 468.1 748.7C467.9 748.9 467.7 748.9 467.4 748.9C467.1 748.9 466.8 748.8 466.6 748.6C466.4 748.4 466.3 748.1 466.3 747.8C466.3 747.5 466.4 747.2 466.6 747C466.8 746.8 467 746.7 467 746.6C468.1 745.5 468.7 744.1 468.7 742.4C468.7 740.8 468.2 739.5 467.2 738.5C466.9 738.3 466.6 738.1 466.2 738.1C465.7 738.1 465.4 738.4 465.3 738.8L462.9 746C462.6 746.9 462.2 747.5 461.9 747.9C461.2 748.6 460.4 748.9 459.4 748.9C458.4 748.9 457.6 748.5 456.9 747.8C455.5 746.4 454.7 744.6 454.7 742.3C454.7 739.8 455.6 737.7 457.6 736ZM457.1 753.6C458.7 752 460.6 751.2 462.9 751.2C465.2 751.2 467.1 752 468.7 753.6C470.3 755.2 471.1 757.1 471.1 759.4C471.1 761.7 470.3 763.6 468.7 765.2C467.1 766.8 465.2 767.6 462.9 767.6C460.6 767.6 458.7 766.8 457.1 765.2C455.5 763.6 454.7 761.7 454.7 759.4C454.7 757.1 455.5 755.2 457.1 753.6ZM455 804.9C454.8 804.7 454.7 804.4 454.7 804.1C454.7 803.8 454.8 803.5 455 803.3C455.2 803.1 455.5 803 455.8 803H457.1C455.5 801.4 454.6 799.4 454.6 797.1C454.6 794.8 455.4 792.9 457 791.3C458.6 789.7 460.5 788.9 462.8 788.9C465.1 788.9 467 789.7 468.6 791.3C470.2 792.9 471 794.8 471 797.1C471 799.4 470.2 801.3 468.6 802.9C467 804.5 465.1 805.3 462.8 805.3H455.8C455.5 805.2 455.2 805.1 455 804.9ZM473.3 809.3L466.3 821C466 821.4 465.7 821.6 465.2 821.6C464.8 821.6 464.4 821.4 464.1 821L457.1 809.3C457 809.1 457 808.9 457 808.7C457 808.4 457.1 808.1 457.3 807.9C457.5 807.7 457.8 807.6 458.1 807.6C458.5 807.6 458.9 807.8 459.1 808.2L465.1 818.2L471.1 808.2C471.4 807.8 471.7 807.6 472.1 807.6C472.4 807.6 472.7 807.7 472.9 807.9C473.1 808.1 473.2 808.4 473.2 808.7C473.4 809 473.4 809.1 473.3 809.3ZM477.8 786.1C477.6 786.3 477.3 786.4 477 786.4H462.9C460.6 786.4 458.7 785.6 457.1 784C455.5 782.4 454.7 780.5 454.7 778.2C454.7 775.9 455.5 774 457.1 772.4C458.7 770.8 460.6 770 462.9 770C465.2 770 467.1 770.8 468.7 772.4C470.3 774 471.1 775.9 471.1 778.2C471.1 780.5 470.3 782.4 468.7 784C468.7 784 468.7 784 468.6 784.1H477C477.3 784.1 477.6 784.2 477.8 784.4C478 784.6 478.1 784.9 478.1 785.2C478.1 785.5 478 785.9 477.8 786.1Z" fill="#5928E5"/>
<path fill-rule="evenodd" clip-rule="evenodd" d="M725.056 351.763C729.413 345.823 737.209 347.4 745.158 355.616C752.896 363.627 757.869 374.257 760.618 385.805C761.002 387.417 760.007 389.035 758.395 389.418C756.783 389.802 755.165 388.807 754.782 387.195C752.26 376.603 747.725 366.91 740.844 359.786C735.121 353.871 731.49 353.136 729.894 355.312C727.95 357.961 728.207 363.991 731.086 369.769L731.265 370.123C735.44 378.2 736.609 394.109 735.999 413.793C735.947 415.449 734.563 416.75 732.907 416.699C731.251 416.647 729.95 415.263 730.001 413.607L730.06 411.508C730.482 394.135 729.343 379.794 726.068 373.141L725.936 372.879C721.943 365.166 721.518 356.586 725.056 351.763Z" fill="#5928E5"/>
<path fill-rule="evenodd" clip-rule="evenodd" d="M858.9 337.8C842.829 337.8 829.8 350.829 829.8 366.9C829.8 382.971 842.829 396 858.9 396C874.971 396 888 382.971 888 366.9C888 350.829 874.971 337.8 858.9 337.8ZM858.9 343.8C871.658 343.8 882 354.142 882 366.9C882 379.658 871.658 390 858.9 390C846.142 390 835.8 379.658 835.8 366.9C835.8 354.142 846.142 343.8 858.9 343.8Z" fill="#5928E5"/>
<path fill-rule="evenodd" clip-rule="evenodd" d="M703.144 462.368C704.406 461.456 706.146 461.666 707.158 462.825L707.702 463.509C708.066 463.967 708.497 464.499 708.993 465.101C710.416 466.828 712.068 468.755 713.928 470.832C719.244 476.772 725.151 482.712 731.48 488.249C746.683 501.547 761.818 510.361 775.88 512.639C777.039 512.826 777.983 513.674 778.293 514.807L778.358 515.064C778.46 515.494 778.577 516.124 778.687 516.959C779.275 521.389 779.179 527.493 777.972 535.372L777.863 536.072C777.239 539.986 778.188 542.731 781.344 547.569L782.922 549.952C785.214 553.453 786.345 555.596 787.191 558.442C788.407 562.537 788.363 566.871 786.88 571.741L786.86 571.832C786.5 573.835 783.522 602.802 782.098 615.255L781.968 616.384C778.189 648.894 773.652 679.239 767.799 707.979C760.083 745.869 750.725 777.429 739.405 800.992C725.76 829.397 709.54 845.547 690.224 846.992C688.572 847.115 687.132 845.876 687.008 844.224C686.885 842.572 688.124 841.132 689.776 841.008C706.256 839.776 720.889 825.358 733.612 799.19L733.997 798.394C745.064 775.357 754.294 744.229 761.92 706.782C767.577 679.003 772.002 649.676 775.701 618.309L776.255 613.53C777.638 601.223 780.642 572.102 781.116 570.082L781.13 570.026C783.155 563.378 782.131 559.673 777.644 552.848L776.592 551.264C772.48 545.043 771.002 540.995 771.937 535.128C773.088 527.909 773.25 522.384 772.823 518.446L772.791 518.173L772.237 518.059C757.894 515.018 743.04 506.203 728.224 493.369L727.53 492.765C721.002 487.055 714.927 480.945 709.457 474.834C707.89 473.083 706.464 471.433 705.19 469.912L704.406 468.969L703.047 470.056C700.427 472.167 697.087 474.946 692.949 478.481C690.31 480.735 687.43 481.932 684.175 482.301L683.682 482.352C681.655 482.541 679.928 482.432 676.465 482.032L676.041 481.983C667.864 481.023 664.495 481.673 660.085 486.618L659.856 486.877C657.023 490.11 642.543 513.308 620.442 549.728L613.442 561.283L610.581 566.017C603.867 577.133 596.894 588.723 589.867 600.437L572.68 629.155L568.277 636.535C567.43 637.959 565.588 638.425 564.165 637.577C562.794 636.761 562.311 635.023 563.034 633.625L568.081 625.153L577.179 609.937C586.233 594.813 595.319 579.689 604.002 565.305L614.698 547.627C637.65 509.786 652.127 486.593 655.34 482.927C658.729 479.046 662.391 476.848 666.505 475.998C669.234 475.435 671.4 475.443 675.354 475.867L677.564 476.117C683.707 476.79 686.117 476.426 689.051 473.919L691.562 471.784C694.612 469.202 697.174 467.082 699.286 465.381L700.855 464.128C701.237 463.826 701.586 463.553 701.903 463.308L702.938 462.519C703.025 462.455 703.093 462.405 703.144 462.368Z" fill="#5928E5"/>
<path fill-rule="evenodd" clip-rule="evenodd" d="M778 535.2C780.5 520.3 781.5 513.9 781.5 513.9C743.3 508 704 460 704 460C704 460 700.1 462.9 689.1 472.4C684.7 476.2 680.1 476.2 675.3 475.7C671.9 517.4 746.8 554.5 782.2 556.3C780 546.3 776.1 546.5 778 535.2Z" fill="#5928E5"/>
<path fill-rule="evenodd" clip-rule="evenodd" d="M560.615 586.271C571.817 584.853 581.682 587.452 589.549 594.809C590.759 595.94 590.823 597.839 589.691 599.049C588.56 600.259 586.661 600.323 585.451 599.191C578.986 593.146 570.905 591.016 561.369 592.223C552.714 593.319 543.307 597.101 533.77 602.734C529.703 605.136 525.891 607.712 522.448 610.287L521.571 610.949C521.004 611.381 520.47 611.796 519.973 612.19L519.255 612.765C518.999 612.972 518.771 613.16 518.57 613.327L518.159 613.672C516.905 614.754 515.01 614.614 513.928 613.359C512.846 612.105 512.986 610.21 514.241 609.128L514.655 608.778C514.83 608.632 515.042 608.458 515.289 608.257L516.243 607.491C517.033 606.864 517.905 606.192 518.854 605.482C522.463 602.784 526.453 600.087 530.719 597.568C540.899 591.555 551.021 587.486 560.615 586.271Z" fill="#5928E5"/>
<path fill-rule="evenodd" clip-rule="evenodd" d="M811.044 352.811L810.78 352.841C806.758 353.42 795.685 359.719 780.084 369.777L776.891 371.847C762.708 381.093 748.758 390.906 744.13 394.938L743.877 395.167C739.728 399.07 730.372 414.45 716.673 439.014L715.811 440.561C715.008 442.004 714.194 443.471 713.371 444.961L710.945 449.363C706.472 457.502 701.869 466.003 697.287 474.559L693.309 482.012C691.854 484.745 690.485 487.328 689.218 489.728L686.542 494.808C685.797 496.231 686.305 497.988 687.694 498.794L763.294 542.694L763.457 542.783C764.992 543.554 766.884 542.875 767.563 541.268L804.595 453.685L805.105 453.675C820.751 453.318 831.213 449.174 835.937 442.495C840.482 436.068 838.298 427.843 831.536 427.309L831.357 427.296C830.477 427.238 829.307 427.237 827.864 427.29L826.945 427.329L827.056 427.293C836.141 424.276 841.608 419.683 843.341 414.087C845.297 407.77 841.585 401.156 835.987 400.806L835.856 400.797C834.522 400.722 832.09 400.996 828.631 401.586L828.087 401.68L828.288 401.573C833.274 398.839 836.554 394.728 837.612 390.093C838.956 384.207 836.292 378.627 830.863 377.199L830.699 377.159C827.574 376.478 819.365 378.089 808.067 381.254L806.859 381.595L807.408 381.277C810.934 379.226 813.943 377.39 816.35 375.806C822.93 371.474 825.189 365.594 822.885 360.187C820.916 355.566 815.873 352.397 811.044 352.811ZM817.365 362.538C818.452 365.091 817.348 367.965 813.05 370.794L812.258 371.311C809.407 373.152 805.728 375.347 801.379 377.822L799.204 379.052C798.68 379.346 798.149 379.644 797.61 379.944C793.397 382.291 788.913 384.716 784.399 387.107L781.395 388.691L776.661 391.155L775.933 391.529C772.613 393.229 774.756 398.254 778.281 397.035L780.505 396.27C804.404 388.089 825.962 382.124 829.345 383.003C831.354 383.532 832.438 385.802 831.763 388.757C830.915 392.472 827.609 395.884 822.184 397.712L821.693 397.874L780.993 412.374C777.46 413.633 778.982 418.865 782.553 418.15L782.875 418.073L788.532 416.675L789.939 416.331C795.41 414.996 801.004 413.661 806.396 412.415L808.761 411.872L812.119 411.111C824.731 408.281 833.528 406.632 835.566 406.791C837.037 406.883 838.489 409.47 837.609 412.313C836.188 416.902 829.901 421.118 817.999 423.446L814.006 424.208C792.939 428.287 785.421 430.966 784.259 433.582C783.326 435.681 784.999 437.983 787.247 437.79L792.665 437.063C796.687 436.532 800.865 436 804.982 435.504L807.095 435.252L811.821 434.71C821.556 433.627 828.497 433.088 831.064 433.291C832.504 433.404 833.19 435.988 831.038 439.03C827.379 444.205 817.885 447.742 802.608 447.7L802.408 447.706C801.28 447.778 800.281 448.481 799.837 449.532L763.362 535.795L693.193 495.049L698.125 485.734C698.762 484.536 699.415 483.309 700.085 482.053L702.576 477.392C707.979 467.302 713.411 457.29 718.622 447.864L721.054 443.478L723.495 439.108C736.018 416.772 744.993 402.142 748.07 399.462C758.995 389.947 806.276 359.242 811.556 358.789C813.753 358.601 816.394 360.26 817.365 362.538Z" fill="#5928E5"/>
<path fill-rule="evenodd" clip-rule="evenodd" d="M643.971 731.509C660.031 730.282 673.977 742.33 675.091 758.371C676.318 774.431 664.27 788.377 648.181 789.494C644.347 789.727 640.71 789.332 637.451 788.246C635.879 787.722 635.03 786.023 635.554 784.451C636.078 782.879 637.777 782.03 639.349 782.554C641.832 783.382 644.71 783.694 647.792 783.507C660.532 782.622 670.082 771.568 669.107 758.808C668.222 746.068 657.168 736.518 644.414 737.492C643.154 737.582 641.893 737.763 640.629 738.033C639.008 738.381 637.414 737.349 637.067 735.729C636.719 734.108 637.751 732.514 639.371 732.167C640.907 731.837 642.446 731.618 643.971 731.509Z" fill="#5928E5"/>
<path fill-rule="evenodd" clip-rule="evenodd" d="M531.9 725.2V811C531.9 827.6 545.3 841 561.9 841H612.5C629.1 841 642.5 827.6 642.5 811V725.2H531.9ZM576.6 788C577.3 788.5 577.6 789 577.6 789.8C577.6 790.4 577.4 790.8 577 791.2C576.6 791.6 576.1 791.8 575.6 791.8C575.2 791.8 574.9 791.7 574.6 791.5L554.6 779.5C553.9 779 553.5 778.4 553.5 777.7C553.5 777 553.9 776.4 554.6 775.9L574.6 763.9C574.9 763.7 575.2 763.6 575.6 763.6C576.2 763.6 576.6 763.8 577 764.2C577.4 764.6 577.6 765.1 577.6 765.6C577.6 766.3 577.3 766.9 576.6 767.4L559.4 777.7L576.6 788ZM601.6 758.4L585.5 798.6C585.4 798.8 585.3 799 585.1 799.2C584.7 799.6 584.2 799.8 583.7 799.8C583.1 799.8 582.7 799.6 582.3 799.2C581.9 798.8 581.7 798.3 581.7 797.8C581.7 797.5 581.8 797.2 581.9 796.9L598 756.7C598.1 756.5 598.2 756.3 598.4 756.1C598.8 755.7 599.3 755.5 599.8 755.5C600.4 755.5 600.8 755.7 601.2 756.1C601.6 756.5 601.8 757 601.8 757.5C601.8 757.9 601.7 758.2 601.6 758.4ZM628.8 779.5L608.8 791.5C608.5 791.7 608.2 791.8 607.8 791.8C607.2 791.8 606.8 791.6 606.4 791.2C606 790.8 605.8 790.3 605.8 789.8C605.8 789.1 606.1 788.5 606.8 788L624 777.7L606.8 767.4C606.1 766.9 605.8 766.4 605.8 765.6C605.8 765 606 764.6 606.4 764.2C606.8 763.8 607.3 763.6 607.8 763.6C608.2 763.6 608.5 763.7 608.8 763.9L628.8 775.9C629.5 776.4 629.9 777 629.9 777.7C630 778.4 629.6 779.1 628.8 779.5Z" fill="#5928E5"/>
<path fill-rule="evenodd" clip-rule="evenodd" d="M1644.2 840.5C1645.86 840.5 1647.2 841.843 1647.2 843.5C1647.2 845.098 1645.95 846.404 1644.38 846.495L1644.2 846.5H7.8C6.14315 846.5 4.8 845.157 4.8 843.5C4.8 841.902 6.04892 840.596 7.62373 840.505L7.8 840.5H1644.2Z" fill="#5928E5"/>
<path fill-rule="evenodd" clip-rule="evenodd" d="M858.5 417.5L853 331.9L742.6 339L746.4 396.9C756.2 388.5 804.4 356.3 811.4 355.7C818.4 355.1 826.8 365.3 814.8 373.2C802.8 381.1 777.4 394.1 777.4 394.1C798.5 386.7 825.2 378.7 830.2 380C837.8 382 837.3 396 822.8 400.6L782.1 415.1C782.1 415.1 829.5 403.2 835.9 403.7C842.3 404.2 847.9 420.8 818.1 426.4C788.3 432.1 787.1 434.7 787.1 434.7C787.1 434.7 823.8 429.5 831.4 430.2C839 430.9 839.2 450.7 802.7 450.6L802.5 451.1L830.6 449.3C847 448.3 859.6 434 858.5 417.5Z" fill="#5928E5"/>
</g>
<defs>
<filter id="filter0_d_0_461" x="0.800003" y="0" width="1650.4" height="855" filterUnits="userSpaceOnUse" color-interpolation-filters="sRGB">
<feFlood flood-opacity="0" result="BackgroundImageFix"/>
<feColorMatrix in="SourceAlpha" type="matrix" values="0 0 0 0 0 0 0 0 0 0 0 0 0 0 0 0 0 0 127 0" result="hardAlpha"/>
<feOffset dy="4"/>
<feGaussianBlur stdDeviation="2"/>
<feComposite in2="hardAlpha" operator="out"/>
<feColorMatrix type="matrix" values="0 0 0 0 0 0 0 0 0 0 0 0 0 0 0 0 0 0 0.25 0"/>
<feBlend mode="normal" in2="BackgroundImageFix" result="effect1_dropShadow_0_461"/>
<feBlend mode="normal" in="SourceGraphic" in2="effect1_dropShadow_0_461" result="shape"/>
</filter>
</defs>
</svg>
