<svg xmlns="http://www.w3.org/2000/svg" width="800px" fill="none" viewBox="0 0 3000 3000" id="BusinessReport"><path fill="#ef616d" d="M2352.54 884.967C2254.39 852.306 2145.32 710.776 2103.06 644.094 2009 521.441 2131.69 488.955 2242.12 595.103 2352.54 701.25 2352.54 644.094 2442.52 742.076 2532.5 840.059 2475.24 925.793 2352.54 884.967zM192.335 1759.98C29.363 2004 95.4786 2236.8 189.568 2397.01 265.142 2525.68 415.733 2580.58 565.16 2580.58H1941.75C2233.1 2580.58 2521.48 2371.09 2630.44 2101.36 2715.38 1891.09 2781.5 1658.5 2694.13 1433.91 2530.54 1013.4 2289.24 1090.97 1982.5 727.618 1675.76 364.267 1353.02 451.962 849.609 650.049 135.077 931.208 503.163 1294.56 192.335 1759.98z" class="colore7e8ff svgShape"></path><path fill="#fff7e6" d="M501.289 545.138C501.289 476.129 557.056 420.186 625.848 420.186H1556.38C1625.17 420.186 1680.94 476.129 1680.94 545.138V2440.1C1680.94 2509.11 1625.17 2565.05 1556.38 2565.05H625.848C557.056 2565.05 501.289 2509.11 501.289 2440.1V545.138Z" class="colorffffff svgShape"></path><path fill="#5928e5" fill-rule="evenodd" d="M493.962 545.138C493.962 472.069 553.009 412.835 625.848 412.835H1556.38C1629.22 412.835 1688.27 472.069 1688.27 545.138V2440.1C1688.27 2513.16 1629.22 2572.4 1556.38 2572.4H625.848C553.009 2572.4 493.962 2513.16 493.962 2440.1V545.138ZM625.848 427.536C561.103 427.536 508.616 480.188 508.616 545.138V2440.1C508.616 2505.05 561.103 2557.7 625.848 2557.7H1556.38C1621.13 2557.7 1673.61 2505.05 1673.61 2440.1V545.138C1673.61 480.188 1621.13 427.536 1556.38 427.536H625.848Z" clip-rule="evenodd" class="color032068 svgShape"></path><path fill="#5928e5" d="M849.539 2203.55C849.539 2183.25 865.941 2166.8 886.174 2166.8H1306.93C1327.17 2166.8 1343.57 2183.25 1343.57 2203.55V2235.66C1343.57 2255.96 1327.17 2272.41 1306.93 2272.41H886.174C865.941 2272.41 849.539 2255.96 849.539 2235.66V2203.55Z" class="color032068 svgShape"></path><path fill="#ef616d" d="M756.596 1988.06C736.363 1988.06 719.96 1971.61 719.96 1951.31L719.96 1821.7C719.96 1801.4 736.363 1784.95 756.596 1784.95L788.61 1784.95C808.843 1784.95 825.245 1801.4 825.245 1821.7L825.245 1951.31C825.245 1971.61 808.843 1988.06 788.61 1988.06L756.596 1988.06zM967.16 1988.06C946.927 1988.06 930.525 1971.61 930.525 1951.31L930.525 1740.46C930.525 1720.16 946.927 1703.71 967.16 1703.71L999.175 1703.71C1019.41 1703.71 1035.81 1720.16 1035.81 1740.46L1035.81 1951.31C1035.81 1971.61 1019.41 1988.06 999.175 1988.06L967.16 1988.06zM1177.73 1988.06C1157.5 1988.06 1141.1 1971.61 1141.1 1951.31L1141.1 1675.46C1141.1 1655.16 1157.5 1638.71 1177.73 1638.71L1209.75 1638.71C1229.98 1638.71 1246.38 1655.16 1246.38 1675.46L1246.38 1951.31C1246.38 1971.61 1229.98 1988.06 1209.75 1988.06L1177.73 1988.06zM1388.3 1988.06C1368.07 1988.06 1351.67 1971.61 1351.67 1951.31L1351.67 1821.7C1351.67 1801.4 1368.07 1784.95 1388.3 1784.95L1420.32 1784.95C1440.55 1784.95 1456.95 1801.4 1456.95 1821.7L1456.95 1951.31C1456.95 1971.61 1440.55 1988.06 1420.32 1988.06L1388.3 1988.06z" class="colore7e8ff svgShape"></path><path fill="#5928e5" d="M848.339 476.645L818.32 420.181H1363.91L1327.43 481.163C1308.9 512.158 1275.51 531.122 1239.47 531.122H938.849C900.966 531.122 866.167 510.177 848.339 476.645Z" class="color032068 svgShape"></path><path fill="#5928e5" d="M1651.45 464.559H530.78C569.119 426.1 605.737 418.95 619.254 420.183H1562.97C1610.16 420.183 1641.62 449.767 1651.45 464.559zM1651.45 2520.67H530.78C569.119 2559.13 605.737 2566.28 619.254 2565.05H1562.97C1610.16 2565.05 1641.62 2535.46 1651.45 2520.67z" class="color032068 svgShape"></path><path fill="#ef616d" fill-rule="evenodd" d="M1260.47 1004.24H711.86V989.537H1260.47V1004.24Z" clip-rule="evenodd" class="colore7e8ff svgShape"></path><path fill="#5928e5" fill-rule="evenodd" d="M717.486 1154.97C717.486 1130.61 737.169 1110.87 761.448 1110.87H1327.5C1351.78 1110.87 1371.47 1130.61 1371.47 1154.97V1393.47C1371.47 1417.83 1351.78 1437.57 1327.5 1437.57H761.448C737.169 1437.57 717.486 1417.83 717.486 1393.47V1154.97ZM761.448 1125.57C745.262 1125.57 732.14 1138.73 732.14 1154.97V1393.47C732.14 1409.71 745.262 1422.87 761.448 1422.87H1327.5C1343.69 1422.87 1356.81 1409.71 1356.81 1393.47V1154.97C1356.81 1138.73 1343.69 1125.57 1327.5 1125.57H761.448Z" clip-rule="evenodd" class="color032068 svgShape"></path><path fill="#5928e5" fill-rule="evenodd" d="M945.289 1187.38C939.412 1178.08 925.81 1178.32 920.267 1187.82L841.178 1323.36C835.92 1332.37 826.293 1337.91 815.885 1337.91H724.813V1323.21H815.885C821.089 1323.21 825.902 1320.44 828.531 1315.93L907.62 1180.4C918.707 1161.4 945.911 1160.91 957.664 1179.5L1034.1 1300.42C1039.5 1308.96 1051.69 1309.6 1057.96 1301.68L1122.36 1220.21C1133.44 1206.21 1154.3 1205.27 1166.57 1218.23L1224.72 1279.63C1227.49 1282.55 1231.33 1284.21 1235.34 1284.21H1359.82V1298.91H1235.34C1227.31 1298.91 1219.63 1295.6 1214.09 1289.76L1155.95 1228.36C1149.81 1221.88 1139.38 1222.34 1133.84 1229.35L1069.44 1310.81C1056.9 1326.67 1032.53 1325.38 1021.72 1308.29L945.289 1187.38Z" clip-rule="evenodd" class="color032068 svgShape"></path><path fill="#ef616d" fill-rule="evenodd" d="M1473.15 882.372H711.86V867.672H1473.15V882.372Z" clip-rule="evenodd" class="colore7e8ff svgShape"></path><path fill="#fff7e6" d="M235.607 2093.33C170.231 2220.09 277.721 2451.98 345.438 2562.25C349.542 2568.93 356.833 2572.91 364.653 2572.91H468.435C482.362 2572.91 493.044 2560.28 490.905 2546.47C424.038 2114.35 258.448 2056.06 235.607 2093.33Z" class="colorffffff svgShape"></path><path fill="#5928e5" fill-rule="evenodd" d="M242.238 2097.15C211.226 2157.62 220.867 2244.51 247.905 2331.7C274.832 2418.53 318.32 2503.48 351.938 2558.22C354.615 2562.58 359.411 2565.24 364.652 2565.24H468.435C477.635 2565.24 484.783 2556.86 483.358 2547.64C450.04 2332.34 392.27 2211.24 340.858 2148.77C315.126 2117.5 291.274 2101.25 273.199 2094.88C254.663 2088.34 245.145 2092.73 242.238 2097.15ZM352.634 2139C406.444 2204.38 464.902 2328.48 498.452 2545.29C501.304 2563.72 487.089 2580.58 468.435 2580.58H364.652C354.255 2580.58 344.468 2575.28 338.936 2566.27C304.839 2510.75 260.723 2424.62 233.32 2336.26C206.071 2248.38 194.642 2156.08 228.825 2089.81L228.954 2089.55L229.102 2089.31C237.775 2075.16 257.515 2073.09 278.261 2080.41C299.748 2087.99 325.754 2106.33 352.634 2139Z" clip-rule="evenodd" class="color032068 svgShape"></path><path fill="#5928e5" d="M432.068 1848.6C284.429 1934.86 352.313 2343.44 408.674 2553.25C411.348 2563.21 420.355 2569.99 430.623 2569.99H507.825C518.852 2569.99 528.341 2562.03 530.28 2551.13C603.234 2140.98 543.318 1810.97 435.42 1847.07C434.275 1847.45 433.111 1847.99 432.068 1848.6Z" class="color032068 svgShape"></path><path fill="#fff7e6" d="M788.954 2119.65C634.051 2130.6 509.623 2390.28 457.758 2543.32C452.794 2557.96 463.795 2572.91 479.202 2572.91H562.89C567.847 2572.91 572.654 2571.33 576.573 2568.28C759.672 2425.79 884.019 2119.65 788.954 2119.65Z" class="colorffffff svgShape"></path><path fill="#5928e5" fill-rule="evenodd" d="M789.213 2127.32C752.669 2129.98 717.404 2147.3 683.998 2174.87 650.511 2202.51 619.293 2240.13 591.063 2282.47 534.6 2367.15 490.787 2469.67 464.988 2545.79 461.767 2555.29 468.85 2565.24 479.201 2565.24H562.889C566.229 2565.24 569.373 2564.18 571.894 2562.22 662.223 2491.93 738.393 2380.89 780.104 2287.4 800.994 2240.57 812.894 2198.91 813.99 2169.43 814.541 2154.62 812.321 2143.9 808.14 2137.12 804.345 2130.98 798.531 2127.39 789.213 2127.32zM794.045 2293.67C751.574 2388.87 674.021 2502.15 581.251 2574.34 575.935 2578.48 569.465 2580.58 562.889 2580.58H479.201C458.739 2580.58 443.821 2560.64 450.527 2540.85 476.593 2463.94 520.927 2360.09 578.37 2273.94 607.093 2230.86 639.268 2191.94 674.298 2163.02 709.325 2134.11 747.608 2114.89 788.417 2112L788.685 2111.98H788.953C803.25 2111.98 814.273 2117.95 821.123 2129.04 827.623 2139.57 829.854 2153.88 829.255 2170 828.051 2202.37 815.246 2246.15 794.045 2293.67zM288.616 2153.5C307.207 2182.35 328.033 2229.97 348.375 2283.6 361.589 2318.44 374.686 2356.05 386.927 2393.12L405.99 2333.69 420.53 2338.4 395.019 2417.92C413.959 2476.65 430.302 2532.17 441.005 2570.86L426.287 2574.96C421.32 2557.01 415.127 2535.39 408.018 2511.5L357.128 2483.11 364.547 2469.71 401.684 2490.42C394.943 2468.2 387.553 2444.51 379.728 2420.29 365.947 2377.65 350.83 2333.44 335.549 2292.89L263.029 2276.26 266.431 2261.31 328.951 2275.65C310.356 2227.79 291.937 2186.89 275.792 2161.83L288.616 2153.5z" clip-rule="evenodd" class="color032068 svgShape"></path><path fill="#fff7e6" fill-rule="evenodd" d="M459.676 2039.8C457.045 1982.46 453.835 1937.59 449.891 1916.46L434.877 1919.29C439.046 1941.61 442.524 1993.79 445.331 2061.48C446.919 2099.78 448.286 2142.83 449.453 2187.89L398.367 2134.79L387.381 2145.45L450.02 2210.55C451.11 2255.72 452.008 2302.38 452.734 2347.87C454.069 2431.44 454.825 2511.03 455.133 2570.03L470.408 2569.95C470.103 2511.53 469.359 2432.96 468.05 2350.31L518.317 2285.18L506.243 2275.79L467.647 2325.79C466.972 2286.25 466.167 2246.14 465.218 2207.19C463.973 2156.06 462.48 2106.91 460.708 2063.63L503.775 2007.35L491.662 1998.01L459.676 2039.8Z" clip-rule="evenodd" class="colorffffff svgShape"></path><path fill="#5928e5" fill-rule="evenodd" d="M696.902 2255.57C726.548 2218.19 754.789 2187.71 778.949 2169.67L769.834 2157.36C741.306 2178.66 708.477 2215.33 675.157 2258.54C659.547 2278.79 643.749 2300.58 628.145 2323.06V2280.48H612.869V2345.39C592.269 2375.89 572.216 2407.18 553.611 2437.27C522.455 2487.67 495.329 2534.75 476.463 2569.22L489.85 2576.6C508.192 2543.09 534.449 2497.48 564.649 2448.5L635.488 2440.16L633.709 2424.93L574.996 2431.84C591.491 2405.47 608.966 2378.44 626.824 2352.05C646.02 2323.69 665.641 2296.1 684.949 2270.91H754.005V2255.57H696.902Z" clip-rule="evenodd" class="color032068 svgShape"></path><path fill="#ef616d" d="M326.618 644.994L292.885 689.942C290.832 692.677 287.485 693.992 284.207 693.353L242.514 685.225C233.544 683.477 228.132 695.206 235.055 701.392L267.823 730.673C270.215 732.811 271.345 736.103 270.795 739.334L262.574 787.615C261.029 796.692 271.77 802.31 277.852 795.606L311.512 758.502C313.488 756.323 316.353 755.271 319.206 755.675L358.161 761.194C366.936 762.438 371.906 751.06 365.233 745.002L336.263 718.7C333.937 716.588 332.825 713.375 333.324 710.205L342.459 652.208C343.953 642.722 332.304 637.418 326.618 644.994zM279.959 1147.29L265.116 1165.6C264.213 1166.72 262.74 1167.25 261.298 1166.99L242.953 1163.68C239.006 1162.97 236.625 1167.75 239.671 1170.27L254.089 1182.2C255.142 1183.07 255.639 1184.41 255.397 1185.72L251.78 1205.39C251.1 1209.09 255.826 1211.38 258.502 1208.65L273.312 1193.53C274.182 1192.65 275.442 1192.22 276.698 1192.38L293.838 1194.63C297.699 1195.14 299.885 1190.5 296.95 1188.03L284.203 1177.32C283.179 1176.46 282.69 1175.15 282.91 1173.86L286.929 1150.23C287.586 1146.36 282.461 1144.2 279.959 1147.29z" class="colore7e8ff svgShape"></path><path fill="#fff7e6" d="M1222 1374C1228.54 1403.45 1251.99 1427.18 1262.9 1435.36L1238.36 1488.53L1168.82 1492.62C1152.46 1451.72 1123.83 1439.45 1066.57 1423.09C1009.31 1406.73 968.41 1374 988.861 1341.28C1005.22 1315.11 1096.57 1324.92 1140.19 1333.1C1107.47 1304.47 1123.83 1292.2 1156.55 1296.29C1189.28 1300.38 1213.82 1337.19 1222 1374Z" class="colorffffff svgShape"></path><path fill="#5928e5" fill-rule="evenodd" d="M1134.13 1288.24C1140.85 1287.02 1148.9 1287.09 1157.57 1288.18C1176.77 1290.58 1192.84 1302.46 1204.91 1317.82C1217.01 1333.23 1225.66 1352.79 1229.98 1372.23C1235.93 1399.01 1257.7 1421.23 1267.81 1428.81L1273.1 1432.78L1243.73 1496.4L1163.42 1501.13L1161.23 1495.65C1153.66 1476.72 1143.51 1464.84 1128.7 1455.59C1113.44 1446.05 1093.02 1439.15 1064.33 1430.95C1035.04 1422.58 1009.07 1409.82 992.893 1394.2C984.768 1386.36 978.683 1377.37 976.359 1367.43C973.975 1357.24 975.739 1346.84 981.925 1336.95C987.839 1327.49 999.464 1322.57 1011.46 1319.84C1023.88 1317 1038.91 1316.03 1054.36 1316.13C1075.94 1316.28 1099.12 1318.54 1118.67 1321.31C1118.06 1320.31 1117.52 1319.33 1117.03 1318.36C1113.73 1311.76 1112.75 1304.3 1117.03 1297.89C1120.91 1292.07 1127.69 1289.41 1134.13 1288.24ZM1131.66 1311.04C1133.53 1314.78 1137.74 1320.08 1145.58 1326.95L1168.11 1346.66L1138.69 1341.14C1117.18 1337.11 1083.95 1332.69 1054.25 1332.49C1039.37 1332.39 1025.76 1333.35 1015.09 1335.79C1003.99 1338.32 998.064 1341.99 995.798 1345.62C991.758 1352.08 990.966 1358.05 992.289 1363.71C993.671 1369.61 997.556 1375.96 1004.26 1382.43C1017.74 1395.45 1040.85 1407.23 1068.82 1415.22C1097.38 1423.38 1119.91 1430.8 1137.37 1441.71C1153.76 1451.95 1165.49 1465.13 1174.09 1484.11L1232.98 1480.65L1252.82 1437.67C1240.06 1426.45 1220.22 1403.73 1214.01 1375.78C1210.15 1358.4 1202.44 1341.16 1192.05 1327.93C1181.62 1314.66 1169.06 1306.1 1155.54 1304.41C1147.85 1303.45 1141.59 1303.52 1137.06 1304.34C1132.25 1305.22 1130.85 1306.65 1130.64 1306.97C1130.64 1306.97 1130.64 1306.97 1130.64 1306.97C1130.6 1307.02 1130.53 1307.13 1130.54 1307.54C1130.56 1308.09 1130.75 1309.22 1131.66 1311.04Z" clip-rule="evenodd" class="color032068 svgShape"></path><path fill="#5928e5" d="M2666.01 2583.14L2640.19 2336.88L1737.32 2330.95L1729.32 2583.14H2666.01Z" class="color032068 svgShape"></path><path fill="#fff7e6" d="M2069.94 1085.21L2057.93 1189.29L2061.94 1269.35L2210.05 1285.36L2274.09 1205.3L2262.08 1085.21C2286.49 1071.26 2304.82 1033.02 2309.15 973.127C2317.48 970.458 2334.14 957.915 2334.14 929.094C2334.14 900.273 2315.88 890.399 2306.75 889.064C2293.75 791.898 2243.35 756.967 2158.01 756.967C2076.19 756.967 2031.83 810.478 2018.37 889.064C2008.87 887.73 1989.88 893.868 1989.88 929.094C1989.88 964.32 2006.94 973.127 2015.47 973.127C2023.3 1040.99 2058.13 1075.76 2069.94 1085.21Z" class="colorffffff svgShape"></path><path fill="#5928e5" fill-rule="evenodd" d="M2068.37 799.305C2046.9 820.957 2032.98 852.235 2026.43 890.446L2025.09 898.27L2017.23 897.165C2014.7 896.809 2010.19 897.419 2006.27 901.234C2002.41 904.985 1998.06 912.891 1998.06 929.094C1998.06 945.434 2002.01 954.437 2005.84 959.182C2009.71 963.968 2013.81 964.946 2015.47 964.946H2022.76L2023.6 972.189C2031.13 1037.45 2064.53 1070.4 2075.05 1078.82L2078.59 1081.65L2066.14 1189.55L2069.76 1261.96L2206.46 1276.74L2265.62 1202.79L2253.42 1080.74L2258.03 1078.11C2268.21 1072.29 2277.91 1060.91 2285.65 1043.13C2293.36 1025.41 2298.87 1001.84 2300.99 972.538L2301.39 967.023L2306.65 965.336C2311.65 963.735 2325.96 954.302 2325.96 929.094C2325.96 904.732 2311.08 897.965 2305.56 897.159L2299.46 896.266L2298.64 890.149C2292.3 842.742 2277.03 811.952 2254.25 792.846C2231.41 773.692 2199.69 765.147 2158.01 765.147C2119.04 765.147 2089.67 777.818 2068.37 799.305ZM2056.75 787.787C2081.45 762.872 2115.16 748.787 2158.01 748.787C2201.67 748.787 2237.81 757.707 2264.76 780.31C2290.78 802.13 2306.98 835.649 2314.08 882.561C2326.61 887.127 2342.32 900.747 2342.32 929.094C2342.32 956.974 2328.27 972.454 2316.92 978.625C2314.46 1007.05 2308.82 1030.87 2300.65 1049.66C2292.98 1067.29 2282.89 1080.9 2270.72 1089.41L2282.56 1207.8L2213.63 1293.97L2054.11 1276.73L2049.73 1189.02L2061.31 1088.62C2046.65 1075.54 2016.79 1041.21 2008.12 980.103C2003.01 978.463 1997.64 975.069 1993.11 969.458C1986.28 960.994 1981.7 947.98 1981.7 929.094C1981.7 910.071 1986.85 897.295 1994.86 889.504C2000.08 884.436 2006.06 881.921 2011.52 881.067C2018.9 843.51 2033.56 811.174 2056.75 787.787Z" clip-rule="evenodd" class="color032068 svgShape"></path><path fill="#fff7e6" fill-rule="evenodd" d="M1689.66 2302.11C1729.69 2382.17 2013.9 2382.17 2182.02 2382.17C2316.04 2382.17 2448.2 2374.69 2528.68 2353.36C2556.98 2386.28 2663.25 2421.65 2697.83 2418.19C2737.86 2414.19 2893.97 1997.88 2897.98 1901.81C2901.98 1805.74 2777.89 1381.43 2569.73 1253.33C2569.43 1253.16 2569.13 1253 2568.83 1252.83C2568.68 1251.66 2568.54 1250.49 2568.4 1249.33C2467.69 1177.17 2358.93 1155.77 2294.1 1157.26C2294.1 1183.95 2269.29 1237.32 2170.01 1237.32C2070.74 1237.32 2048.59 1183.95 2045.92 1157.26C2007.23 1158.34 1905.68 1171.71 1815.75 1213.69C1758.13 1235.72 1696.02 1273.25 1653.68 1334.22C1592.52 1422.3 1567.24 1499.91 1550.43 1551.51C1539.74 1584.34 1532.48 1606.64 1521.58 1614.42C1506.91 1624.91 1450.51 1569.51 1394.37 1514.37L1394.37 1514.37C1343.31 1464.22 1292.47 1414.28 1273.4 1414.28C1233.37 1414.28 1141.3 1494.34 1141.3 1542.37C1141.3 1590.41 1361.47 1998.71 1425.51 2042.74C1487.55 2085.39 1631.81 2086.73 1673.55 2046.76C1674.88 2181.84 1680.9 2284.59 1689.66 2302.11Z" clip-rule="evenodd" class="colorffffff svgShape"></path><path fill="#5928e5" fill-rule="evenodd" d="M2053.3 1148.87L2054.06 1156.45C2055.24 1168.23 2060.76 1186.21 2077.25 1201.26C2093.66 1216.23 2121.86 1229.14 2170.01 1229.14C2218.18 1229.14 2247.07 1216.22 2263.83 1201.21C2280.68 1186.1 2285.92 1168.32 2285.92 1157.26V1149.27L2293.92 1149.08C2360.38 1147.56 2470.91 1169.41 2573.16 1242.68L2576.08 1244.77L2576.46 1247.88C2681.69 1313.98 2764.73 1453.06 2820.95 1586.4C2849.38 1653.83 2871.15 1720.25 2885.57 1775.92C2899.91 1831.3 2907.2 1876.84 2906.15 1902.15C2905.1 1927.35 2894.27 1972.33 2878.48 2024.82C2862.59 2077.65 2841.38 2139.01 2819.05 2197.45C2796.74 2255.87 2773.24 2311.55 2752.76 2352.96C2742.53 2373.63 2732.94 2390.98 2724.53 2403.39C2720.33 2409.57 2716.26 2414.79 2712.37 2418.62C2708.79 2422.14 2704.11 2425.79 2698.64 2426.33C2688.65 2427.33 2674.48 2425.52 2659.04 2422.14C2643.37 2418.71 2625.61 2413.47 2608.1 2407.1C2590.6 2400.74 2573.19 2393.18 2558.27 2385.04C2545.52 2378.1 2534.1 2370.47 2526.03 2362.49C2444.06 2383.18 2313.47 2390.35 2182.02 2390.35H2181.82C2097.87 2390.35 1984.45 2390.35 1886.96 2380.3C1838.21 2375.27 1793.02 2367.69 1757.32 2356.18C1722.15 2344.83 1693.94 2328.97 1682.34 2305.77C1680.76 2302.6 1679.53 2298.22 1678.5 2293.34C1677.43 2288.29 1676.44 2282.08 1675.52 2274.85C1673.67 2260.4 1672.04 2241.49 1670.65 2219.03C1668.1 2177.63 1666.33 2123.81 1665.55 2062.76C1654.91 2068.95 1641.91 2073.6 1627.8 2076.95C1606.65 2081.97 1582.07 2084.25 1557.03 2083.91C1507.3 2083.23 1453.83 2072.13 1420.88 2049.48C1411.76 2043.21 1400.66 2031.13 1388.48 2015.62C1376.13 1999.9 1362.13 1979.94 1347.24 1957.22C1317.45 1911.78 1283.82 1854.93 1252.24 1798.03C1220.65 1741.12 1191.04 1684.04 1169.31 1638.13C1158.45 1615.18 1149.51 1594.92 1143.26 1578.81C1140.14 1570.77 1137.65 1563.65 1135.93 1557.69C1134.27 1551.92 1133.12 1546.59 1133.12 1542.37C1133.12 1528.02 1139.88 1512.39 1149.45 1497.64C1159.16 1482.68 1172.4 1467.67 1186.77 1454.32C1201.16 1440.96 1216.9 1429.07 1231.77 1420.46C1246.35 1412.02 1261.16 1406.1 1273.4 1406.1C1277.41 1406.1 1281.5 1407.37 1285.28 1409.04C1289.17 1410.75 1293.34 1413.16 1297.68 1416.05C1306.38 1421.81 1316.43 1429.89 1327.27 1439.36C1348.93 1458.27 1374.54 1483.42 1399.97 1508.4L1400.1 1508.53L1400.1 1508.53C1400.12 1508.55 1400.14 1508.57 1400.16 1508.59C1428.29 1536.22 1456.16 1563.58 1478.81 1582.76C1490.19 1592.39 1499.88 1599.64 1507.39 1603.82C1511.17 1605.93 1513.95 1607 1515.83 1607.38C1516.51 1607.52 1516.93 1607.54 1517.15 1607.53C1520.5 1604.96 1524.22 1599.39 1528.55 1589.17C1532.9 1578.91 1537.27 1565.52 1542.65 1548.98L1542.68 1548.91C1559.53 1497.15 1585.11 1418.62 1646.96 1329.55C1690.47 1266.9 1754.06 1228.56 1812.56 1206.15C1903.66 1163.68 2006.21 1150.18 2045.69 1149.08L2053.3 1148.87ZM1517.35 1607.51C1517.35 1607.51 1517.33 1607.52 1517.3 1607.52C1517.33 1607.51 1517.35 1607.51 1517.35 1607.51ZM2301.69 1165.37C2299.6 1180.03 2291.8 1198.11 2274.74 1213.39C2254.27 1231.74 2221.12 1245.5 2170.01 1245.5C2118.89 1245.5 2086.38 1231.73 2066.23 1213.34C2049.37 1197.96 2041.82 1179.95 2038.94 1165.75C1996.68 1168.12 1902.74 1182.1 1819.21 1221.1L1818.95 1221.23L1818.67 1221.33C1762.01 1243 1701.5 1279.7 1660.4 1338.88C1599.95 1425.93 1574.97 1502.59 1558.21 1554.05L1558.11 1554.37C1552.84 1570.52 1548.27 1584.58 1543.62 1595.55C1539.06 1606.31 1533.79 1615.76 1526.34 1621.08C1521.93 1624.23 1516.79 1624.27 1512.58 1623.41C1508.35 1622.56 1503.88 1620.59 1499.43 1618.11C1490.49 1613.14 1479.82 1605.05 1468.24 1595.25C1445.06 1575.62 1416.76 1547.82 1388.83 1520.39L1388.64 1520.21L1388.64 1520.21C1388.62 1520.19 1388.6 1520.17 1388.59 1520.16C1363.02 1495.04 1337.75 1470.23 1316.51 1451.68C1305.87 1442.39 1296.45 1434.85 1288.65 1429.68C1284.75 1427.1 1281.42 1425.22 1278.67 1424C1275.83 1422.75 1274.15 1422.46 1273.4 1422.46C1265.62 1422.46 1253.92 1426.54 1239.97 1434.62C1226.32 1442.52 1211.54 1453.64 1197.91 1466.3C1184.26 1478.98 1171.98 1492.98 1163.17 1506.55C1154.24 1520.31 1149.48 1532.71 1149.48 1542.37C1149.48 1544.16 1150.06 1547.64 1151.65 1553.15C1153.19 1558.48 1155.49 1565.1 1158.51 1572.9C1164.56 1588.49 1173.32 1608.35 1184.1 1631.13C1205.64 1676.65 1235.08 1733.41 1266.54 1790.09C1298 1846.77 1331.42 1903.25 1360.93 1948.25C1375.68 1970.76 1389.39 1990.3 1401.35 2005.52C1413.47 2020.95 1423.26 2031.26 1430.15 2036C1459.23 2056 1508.91 2066.89 1557.25 2067.55C1581.25 2067.88 1604.44 2065.68 1624.02 2061.03C1643.8 2056.34 1658.99 2049.38 1667.89 2040.85L1681.55 2027.78L1681.73 2046.68C1682.39 2114.14 1684.23 2173.44 1686.98 2218.02C1688.36 2240.31 1689.96 2258.82 1691.75 2272.78C1692.64 2279.76 1693.57 2285.5 1694.51 2289.95C1695.49 2294.58 1696.37 2297.24 1696.97 2298.45C1705.39 2315.28 1727.72 2329.44 1762.35 2340.61C1796.45 2351.61 1840.33 2359.04 1888.64 2364.02C1985.22 2373.98 2097.87 2373.99 2182.02 2373.99C2316.05 2373.99 2447.24 2366.48 2526.58 2345.45L2531.54 2344.13L2534.88 2348.02C2540.98 2355.12 2551.89 2362.93 2566.1 2370.68C2580.14 2378.33 2596.77 2385.57 2613.69 2391.73C2630.62 2397.89 2647.68 2402.9 2662.54 2406.16C2677.64 2409.47 2689.71 2410.78 2697.01 2410.06C2696.95 2410.06 2696.92 2410.07 2696.92 2410.06C2696.91 2410.03 2698.19 2409.62 2700.89 2406.96C2703.69 2404.21 2707.07 2399.98 2710.99 2394.21C2718.79 2382.71 2727.99 2366.13 2738.09 2345.7C2758.26 2304.93 2781.55 2249.78 2803.77 2191.61C2825.98 2133.47 2847.05 2072.49 2862.81 2020.11C2878.67 1967.4 2888.85 1924.31 2889.8 1901.47C2890.75 1878.75 2884.03 1835.23 2869.73 1780.02C2855.5 1725.11 2833.99 1659.44 2805.88 1592.76C2749.48 1459 2667.29 1323.06 2565.59 1260.39C2565.36 1260.26 2565.14 1260.14 2564.91 1260.01L2561.22 1258L2560.72 1253.91C2466.16 1187.18 2364.95 1165.65 2301.69 1165.37Z" clip-rule="evenodd" class="color032068 svgShape"></path><path fill="#5928e5" d="M1993.88 821.014C1987.48 859.443 1993.88 913.082 2009.9 933.097L2041.92 865.046C2051.53 871.451 2096.63 873.052 2113.97 873.052 2181.22 869.85 2230.06 831.688 2246.07 813.008 2249.27 841.829 2292.77 918.419 2310.12 953.111 2331.47 921.088 2345.34 837.026 2326.13 756.967 2306.92 676.907 2254.08 672.905 2222.05 680.911 2133.99 612.86 2033.91 620.866 1985.88 688.917 1947.45 743.357 1969.87 799.665 1993.88 821.014zM1689.29 1550.38C1677.28 1702.49 1673.28 1942.67 1673.28 2046.74 1660.47 2059.55 1633.25 2065.42 1621.24 2066.76 1643.66 2015.52 1673.28 1702.49 1689.29 1550.38z" class="color032068 svgShape"></path><path fill="#fff7e6" d="M2493.56 2431.12C2495.44 2409.65 2503.1 2407.34 2529.13 2382.75C2534.59 2377.59 2539.3 2372.59 2543.31 2367.89C2569.66 2387.53 2640.04 2408.8 2671.94 2416.98C2673.65 2461.44 2638.3 2534.49 2623.34 2542.48C2605.33 2552.09 2537.44 2534.95 2520.16 2519.26C2506.34 2506.71 2518.55 2472.36 2526.96 2458.67C2517.87 2451.66 2492.05 2448.3 2493.56 2431.12Z" class="colorffffff svgShape"></path><path fill="#5928e5" fill-rule="evenodd" d="M2542.06 2356.76L2537.09 2362.58C2533.26 2367.06 2528.76 2371.85 2523.51 2376.81C2518.67 2381.38 2514.5 2385.15 2510.82 2388.47C2509.61 2389.56 2508.46 2390.6 2507.35 2391.61C2502.96 2395.61 2499.14 2399.19 2496.06 2402.79C2489.34 2410.68 2486.46 2418.34 2485.41 2430.41C2484.18 2444.41 2494.68 2451.88 2502.5 2455.96C2505.84 2457.7 2509.45 2459.22 2512.53 2460.52C2513.21 2460.81 2513.86 2461.08 2514.48 2461.35C2514.99 2461.56 2515.46 2461.77 2515.92 2461.97C2512.42 2469.29 2509.05 2478.56 2507.2 2487.79C2505.91 2494.23 2505.27 2501.08 2506.09 2507.47C2506.92 2513.86 2509.3 2520.45 2514.66 2525.32C2520.09 2530.25 2528.69 2534.7 2537.98 2538.45C2547.49 2542.29 2558.56 2545.72 2569.6 2548.32C2580.62 2550.92 2591.83 2552.75 2601.61 2553.28C2610.9 2553.79 2620.54 2553.25 2627.19 2549.69C2630.46 2547.95 2633.46 2544.96 2636.05 2541.88C2638.78 2538.64 2641.6 2534.61 2644.43 2530.07C2650.09 2520.97 2656.05 2509.31 2661.42 2496.59C2672.06 2471.42 2681.04 2440.71 2680.11 2416.66L2679.88 2410.57L2673.97 2409.05C2658.21 2405.01 2632.88 2397.72 2608.27 2389.02C2583.34 2380.2 2560.26 2370.32 2548.19 2361.33L2542.06 2356.76ZM2544.66 2378.68C2559.41 2387.87 2581.29 2396.83 2602.82 2404.44C2624.97 2412.27 2647.64 2418.97 2663.76 2423.29C2663.04 2442.99 2655.72 2468.07 2646.35 2490.22C2641.24 2502.32 2635.66 2513.19 2630.54 2521.43C2627.97 2525.55 2625.6 2528.89 2623.53 2531.35C2621.33 2533.97 2619.95 2535.01 2619.48 2535.26C2617.13 2536.52 2611.53 2537.44 2602.5 2536.95C2593.94 2536.48 2583.72 2534.84 2573.36 2532.4C2563.01 2529.96 2552.74 2526.76 2544.1 2523.28C2535.24 2519.7 2528.87 2516.12 2525.66 2513.21C2524.11 2511.8 2522.83 2509.39 2522.32 2505.38C2521.81 2501.37 2522.16 2496.43 2523.24 2491C2525.42 2480.1 2530.22 2469 2533.93 2462.96L2537.78 2456.69L2531.96 2452.2C2528.73 2449.71 2524.45 2447.81 2520.91 2446.3C2520.14 2445.97 2519.38 2445.65 2518.63 2445.34C2515.58 2444.05 2512.75 2442.86 2510.07 2441.46C2503.08 2437.81 2501.43 2435.02 2501.7 2431.84C2502.53 2422.43 2504.42 2418.2 2508.51 2413.41C2510.84 2410.69 2513.94 2407.74 2518.36 2403.71C2519.4 2402.76 2520.52 2401.76 2521.69 2400.69C2525.4 2397.35 2529.76 2393.42 2534.75 2388.7C2538.36 2385.29 2541.66 2381.94 2544.66 2378.68Z" clip-rule="evenodd" class="color032068 svgShape"></path><path fill="#5928e5" d="M2861.96 2053.93C2797.91 1929.03 2829.93 1756.37 2853.95 1685.65 2865.96 1731.02 2891.58 1832.96 2897.98 1877.8 2904.39 1922.63 2876.63 2013.9 2861.96 2053.93zM2569.74 1949.85C2566.54 1889 2528.38 1743.03 2509.7 1677.65 2537.72 1749.7 2609.77 1869.79 2609.77 1949.85 2609.77 2013.9 2551.06 2232.72 2521.7 2334.13 2539.05 2231.39 2572.94 2010.69 2569.74 1949.85zM1661.27 2054.75C1561.99 1971.49 1409.08 1942.67 1345.03 1938.66 1355.71 1969.35 1396.27 2037.14 1473.13 2062.76 1549.98 2088.37 1630.58 2068.09 1661.27 2054.75zM2161.64 1118.06C2110.4 1118.06 2078.91 1096.71 2069.57 1086.03L2065.57 1126.06C2155.23 1177.3 2236.36 1147.41 2265.71 1126.06L2261.71 1086.03C2249.7 1096.71 2212.87 1118.06 2161.64 1118.06z" class="color032068 svgShape"></path></svg>