<svg width="1489" height="753" viewBox="0 0 1489 753" fill="none" xmlns="http://www.w3.org/2000/svg">
<g filter="url(#filter0_d_0_10071)">
<rect x="89.6113" y="174.364" width="131.196" height="131.196" transform="rotate(10.9998 89.6113 174.364)" fill="#FEBA91"/>
<path fill-rule="evenodd" clip-rule="evenodd" d="M99.7668 215.971C100.102 214.408 101.597 213.394 103.156 213.635L103.33 213.667L194.63 233.267C196.25 233.615 197.281 235.21 196.933 236.83C196.598 238.392 195.103 239.407 193.544 239.165L193.37 239.133L102.07 219.533C100.45 219.186 99.4191 217.59 99.7668 215.971Z" fill="black"/>
<path fill-rule="evenodd" clip-rule="evenodd" d="M96.4667 233.071C96.8019 231.508 98.2969 230.493 99.8559 230.735L100.029 230.767L188.129 249.667C189.749 250.014 190.781 251.609 190.433 253.229C190.098 254.791 188.603 255.806 187.044 255.565L186.871 255.533L98.7707 236.633C97.1507 236.286 96.1192 234.691 96.4667 233.071Z" fill="black"/>
<path fill-rule="evenodd" clip-rule="evenodd" d="M90.7669 250.57C91.1025 249.008 92.5978 247.993 94.1567 248.235L94.3301 248.267L161.83 262.767C163.45 263.115 164.481 264.71 164.133 266.33C163.798 267.892 162.302 268.907 160.743 268.665L160.57 268.633L93.0699 254.133C91.45 253.785 90.4189 252.19 90.7669 250.57Z" fill="black"/>
<rect x="4.60202" y="288.769" width="131.2" height="131.2" transform="rotate(-23.6094 4.60202 288.769)" fill="#FEBA91"/>
<path fill-rule="evenodd" clip-rule="evenodd" d="M106.26 294.225C107.792 293.595 109.545 294.327 110.175 295.86C110.782 297.337 110.123 299.02 108.701 299.703L108.54 299.775L51.8403 323.075C50.3078 323.704 48.5549 322.973 47.9252 321.44C47.3179 319.962 47.9767 318.28 49.3986 317.597L49.5597 317.525L106.26 294.225Z" fill="black"/>
<path fill-rule="evenodd" clip-rule="evenodd" d="M87.6625 327.124C89.1956 326.496 90.9477 327.23 91.576 328.763C92.1818 330.241 91.5213 331.923 90.0987 332.605L89.9375 332.676L63.3375 343.576C61.8044 344.204 60.0523 343.471 59.424 341.938C58.8182 340.459 59.4787 338.777 60.9013 338.096L61.0625 338.024L87.6625 327.124Z" fill="black"/>
<path fill-rule="evenodd" clip-rule="evenodd" d="M74.4 251.7L73 258.9L123.3 240.2L162.4 322.2L169.5 323.5L126.4 232.3L74.4 251.7Z" fill="#FFF7E6"/>
<path fill-rule="evenodd" clip-rule="evenodd" d="M1421 432.5H903.7C868.6 432.5 840.1 404 840.1 368.9V0H1484.6V368.9C1484.6 404.1 1456.1 432.5 1421 432.5Z" fill="#5928E5"/>
<path fill-rule="evenodd" clip-rule="evenodd" d="M1194.2 277.8C1194.2 277.8 1170.2 284 1164.9 261.7C1164.9 261.7 1183.5 253.6 1194.2 277.8Z" fill="#FFF7E6"/>
<path fill-rule="evenodd" clip-rule="evenodd" d="M1138.9 220.4C1141.6 222.1 1144.6 223.3 1147.6 224.3C1144.7 228.2 1143.3 233.4 1144.3 238.8C1145.3 244.8 1148.9 249.6 1153.4 251.9C1152.2 259.2 1150.1 269.7 1147.7 273.4C1146.5 275.2 1147.2 277.9 1149.2 279.5C1151.2 281 1153.8 280.8 1155 279C1158.5 273.6 1160.9 260.4 1162 253.3C1162.2 253.3 1162.3 253.3 1162.5 253.2C1170.9 251.6 1176.4 242.5 1174.8 232.8C1174.3 229.7 1173 226.9 1171.3 224.6C1180.6 222.2 1189.2 216.9 1195.2 208.9C1208.1 191.6 1203.9 168.7 1185.8 157.7C1167.7 146.7 1142.5 151.8 1129.6 169C1116.6 186.4 1120.8 209.3 1138.9 220.4Z" fill="#FFF7E6"/>
<path fill-rule="evenodd" clip-rule="evenodd" d="M1048.2 388.7L956.4 370.9L928.8 314.8L944.4 234.9L1073.2 259.9L1048.2 388.7Z" fill="#FEBA91"/>
<path fill-rule="evenodd" clip-rule="evenodd" d="M961.446 270.374C961.726 268.801 963.185 267.734 964.751 267.92L964.926 267.946L1040.23 281.346C1041.86 281.637 1042.94 283.194 1042.65 284.826C1042.37 286.398 1040.92 287.465 1039.35 287.279L1039.17 287.254L963.874 273.854C962.243 273.563 961.156 272.006 961.446 270.374Z" fill="#FFF7E6"/>
<path fill-rule="evenodd" clip-rule="evenodd" d="M959.146 283.575C959.426 282.002 960.885 280.935 962.451 281.121L962.626 281.147L1037.93 294.547C1039.56 294.837 1040.64 296.394 1040.35 298.026C1040.07 299.599 1038.62 300.666 1037.05 300.48L1036.87 300.454L961.574 287.054C959.943 286.763 958.856 285.206 959.146 283.575Z" fill="#FFF7E6"/>
<path fill-rule="evenodd" clip-rule="evenodd" d="M957.047 297.471C957.328 295.898 958.788 294.833 960.354 295.02L960.529 295.046L1005.23 303.046C1006.86 303.338 1007.94 304.897 1007.65 306.528C1007.37 308.101 1005.91 309.166 1004.35 308.979L1004.17 308.953L959.472 300.953C957.841 300.661 956.755 299.102 957.047 297.471Z" fill="#FFF7E6"/>
<path fill-rule="evenodd" clip-rule="evenodd" d="M929.26 313.304C929.577 311.738 931.061 310.706 932.622 310.93L932.796 310.96L969.796 318.46C971.382 318.781 972.416 320.297 972.163 321.873L972.129 322.049L961.629 369.449C961.271 371.066 959.669 372.087 958.051 371.729C956.491 371.383 955.486 369.882 955.738 368.324L955.771 368.151L965.61 323.733L931.604 316.84C930.038 316.523 929.006 315.039 929.23 313.478L929.26 313.304Z" fill="#FFF7E6"/>
<path fill-rule="evenodd" clip-rule="evenodd" d="M840.1 67C841.757 67 843.1 68.3431 843.1 70C843.1 71.5977 841.851 72.9037 840.276 72.9949L840.1 73H819.878L819.663 74.7238C819.499 76.004 819.312 77.3858 819.103 78.8643L818.897 80.298C817.747 88.2025 816.218 97.0054 814.261 106.483C808.667 133.568 800.758 160.656 790.124 185.966C774.506 223.14 754.339 253.228 728.982 273.667C698.467 298.265 661.603 307.864 618.057 299.85L612.537 298.838C554.112 288.155 510.104 281.254 463.002 276.218L461.529 276.061C395.625 269.079 336.639 267.681 284.825 273.109C223.809 279.5 174.628 295.244 138.985 321.669C98.9495 351.351 76.473 394.189 73.4959 451.856C70.4419 510.526 79.0922 550.212 97.5153 573.162C112.749 592.14 134.385 599.302 161.061 596.732C179.362 594.968 199.056 588.72 218.96 579.398C227.328 575.48 235.162 571.279 242.238 567.081L243.56 566.291C245.07 565.383 246.467 564.52 247.744 563.712L248.81 563.033C249.361 562.678 249.853 562.358 250.283 562.074L251.105 561.525C252.472 560.589 254.339 560.938 255.275 562.305C256.211 563.672 255.862 565.539 254.495 566.475L253.854 566.906C253.427 567.189 252.938 567.509 252.389 567.864L252.052 568.081C250.096 569.338 247.835 570.736 245.3 572.241C238.065 576.534 230.06 580.826 221.505 584.832C201.031 594.421 180.717 600.866 161.636 602.704C133.095 605.454 109.463 597.632 92.8363 576.918C73.3335 552.622 64.3806 511.549 67.504 451.545C70.5724 392.11 93.9207 347.61 135.412 316.849C172.038 289.695 222.206 273.636 284.2 267.141C336.487 261.664 395.872 263.072 462.161 270.095L465.116 270.411C513.314 275.611 558.428 282.776 619.143 293.95C660.956 301.644 696.052 292.505 725.217 268.996C749.696 249.264 769.328 219.974 784.592 183.642C795.061 158.726 802.864 132 808.385 105.27C810.226 96.3578 811.682 88.0542 812.795 80.5532L812.96 79.434C813.29 77.1652 813.568 75.1101 813.797 73.2852L814.049 71.202L814.215 69.7023C814.362 68.2273 815.561 67.0904 817.023 67.0051L817.2 67H840.1Z" fill="#5928E5"/>
<path fill-rule="evenodd" clip-rule="evenodd" d="M835.6 78.9998H819C816.5 78.9998 814.5 76.9998 814.5 74.4998V65.7998C814.5 63.2998 816.5 61.2998 819 61.2998H835.6C838.1 61.2998 840.1 63.2998 840.1 65.7998V74.4998C840.1 76.9998 838 78.9998 835.6 78.9998Z" fill="#EF616D"/>
<path fill-rule="evenodd" clip-rule="evenodd" d="M268.7 561C277.2 554 280.1 510.2 244.4 529.5C208.7 548.8 235.1 576.6 252.6 569.4C270 562.2 268.7 561 268.7 561Z" fill="#EF616D"/>
<path fill-rule="evenodd" clip-rule="evenodd" d="M373.841 265.391C374.647 267.175 373.907 269.263 372.19 270.153L371.87 270.304L370.671 270.857L368.98 271.651C366.485 272.83 363.588 274.234 360.322 275.858L358.228 276.904C349.782 281.142 340.504 286.031 330.583 291.544L329.339 292.237C297.277 310.128 265.215 330.749 235.307 353.805C175.483 399.924 131.987 449.792 111.735 502.327C86.7956 567.022 98.4496 632.657 153.812 698.847C155.111 700.401 154.905 702.713 153.352 704.012C151.799 705.311 149.487 705.105 148.188 703.552C91.1355 635.341 78.9835 566.901 104.893 499.69C125.713 445.682 170.038 394.863 230.83 347.998C261.049 324.702 293.408 303.889 325.766 285.834L328.27 284.442C338.23 278.929 347.537 274.046 356.003 269.818L357.057 269.292C359.658 267.999 362.031 266.843 364.159 265.824L366.929 264.512L368.991 263.558C370.837 262.725 373.008 263.545 373.841 265.391Z" fill="#5928E5"/>
<path fill-rule="evenodd" clip-rule="evenodd" d="M155 708.7C164.2 714.7 206.8 704.4 177.8 676.1C148.8 647.7 130 681.2 142.1 695.8C154.3 710.3 155 708.7 155 708.7Z" fill="#EF616D"/>
<path fill-rule="evenodd" clip-rule="evenodd" d="M409.3 282.5H369C361.7 282.5 355.7 276.6 355.7 269.2C355.7 261.9 361.6 255.9 369 255.9H409.3C416.6 255.9 422.6 261.8 422.6 269.2C422.6 276.6 416.6 282.5 409.3 282.5Z" fill="#EF616D"/>
<path fill-rule="evenodd" clip-rule="evenodd" d="M1308.5 688.3L1268 675.6C1247.3 669.1 1235.8 647.2 1242.3 626.5L1282.4 498.4C1288.9 477.7 1310.8 466.2 1331.5 472.7L1372 485.4C1392.7 491.9 1404.2 513.8 1397.7 534.5L1357.6 662.6C1351.2 683.3 1329.2 694.8 1308.5 688.3Z" fill="#FFF7E6"/>
<path fill-rule="evenodd" clip-rule="evenodd" d="M1279.54 497.501L1239.44 625.604C1232.45 647.869 1244.81 671.462 1267.1 678.462L1307.6 691.163C1329.89 698.162 1353.58 685.77 1360.47 663.486L1400.56 535.396C1407.55 513.132 1395.19 489.539 1372.9 482.538L1332.4 469.838C1310.13 462.846 1286.54 475.207 1279.54 497.501ZM1330.6 475.562L1371.1 488.263C1390.24 494.271 1400.84 514.499 1394.84 533.601L1354.74 661.704C1348.83 680.818 1328.52 691.443 1309.4 685.438L1268.9 672.738C1249.76 666.729 1239.16 646.501 1245.16 627.399L1285.26 499.296C1291.27 480.162 1311.5 469.564 1330.6 475.562Z" fill="black"/>
<path fill-rule="evenodd" clip-rule="evenodd" d="M1295.8 612.9C1295.8 612.9 1304.8 612.7 1304.8 621C1304.8 621 1297.5 622.4 1295.8 612.9Z" fill="black"/>
<path fill-rule="evenodd" clip-rule="evenodd" d="M1310.6 637.8C1309.8 637 1308.8 636.3 1307.9 635.7C1309.2 634.6 1310.2 632.8 1310.3 630.8C1310.4 628.6 1309.6 626.6 1308.2 625.4C1309.2 622.9 1310.8 619.4 1312 618.3C1312.6 617.8 1312.6 616.7 1312 616C1311.4 615.3 1310.5 615.1 1309.9 615.7C1308.2 617.3 1306.3 621.8 1305.3 624.2C1305.2 624.2 1305.2 624.2 1305.1 624.2C1302 624.1 1299.3 626.8 1299.1 630.4C1299 631.6 1299.3 632.6 1299.7 633.6C1296.2 633.7 1292.7 634.9 1290 637.2C1284 642.2 1283.6 650.7 1289.1 656.1C1294.6 661.5 1303.9 661.8 1309.9 656.7C1315.7 651.6 1316.1 643.2 1310.6 637.8Z" fill="black"/>
<rect x="453.089" y="433.734" width="267.306" height="315.507" transform="rotate(-9.43312 453.089 433.734)" fill="black"/>
<rect x="388.352" y="454.495" width="245.897" height="290.197" transform="rotate(-21.4386 388.352 454.495)" fill="#FFF7E6"/>
<path fill-rule="evenodd" clip-rule="evenodd" d="M616.139 361.826L387.256 451.702C385.713 452.308 384.954 454.049 385.56 455.591L491.628 725.709C492.233 727.252 493.974 728.011 495.517 727.405L724.4 637.529C725.943 636.923 726.702 635.182 726.096 633.64L620.028 363.522C619.423 361.98 617.681 361.22 616.139 361.826ZM615.539 368.507L719.414 633.041L496.116 720.724L392.241 456.191L615.539 368.507Z" fill="black"/>
<path fill-rule="evenodd" clip-rule="evenodd" d="M417.841 486.673C420.176 485.757 422.81 486.907 423.726 489.241C424.615 491.507 423.558 494.055 421.361 495.041L421.159 495.126L378.859 511.726C376.524 512.642 373.89 511.492 372.974 509.158C372.085 506.893 373.142 504.344 375.339 503.359L375.541 503.273L417.841 486.673Z" fill="black"/>
<path fill-rule="evenodd" clip-rule="evenodd" d="M435.433 531.478C437.765 530.557 440.402 531.701 441.323 534.033C442.216 536.297 441.165 538.848 438.97 539.838L438.767 539.923L396.467 556.623C394.135 557.544 391.498 556.4 390.577 554.068C389.684 551.804 390.735 549.253 392.93 548.263L393.133 548.178L435.433 531.478Z" fill="black"/>
<path fill-rule="evenodd" clip-rule="evenodd" d="M453.041 576.374C455.376 575.458 458.01 576.607 458.926 578.941C459.815 581.207 458.758 583.755 456.561 584.741L456.359 584.826L414.059 601.426C411.724 602.342 409.09 601.192 408.174 598.858C407.285 596.593 408.342 594.044 410.539 593.059L410.741 592.974L453.041 576.374Z" fill="black"/>
<path fill-rule="evenodd" clip-rule="evenodd" d="M470.642 621.173C472.976 620.257 475.61 621.407 476.526 623.741C477.415 626.007 476.358 628.555 474.161 629.541L473.959 629.626L431.659 646.226C429.324 647.142 426.69 645.992 425.774 643.658C424.885 641.393 425.942 638.844 428.139 637.859L428.342 637.773L470.642 621.173Z" fill="black"/>
<path fill-rule="evenodd" clip-rule="evenodd" d="M488.336 665.976C490.669 665.057 493.305 666.204 494.224 668.537C495.116 670.801 494.062 673.351 491.866 674.339L491.664 674.425L449.264 691.125C446.931 692.043 444.295 690.897 443.376 688.564C442.484 686.3 443.538 683.75 445.733 682.762L445.936 682.676L488.336 665.976Z" fill="black"/>
<path fill-rule="evenodd" clip-rule="evenodd" d="M546.304 475.808C547.846 475.202 549.587 475.962 550.192 477.504C550.776 478.991 550.091 480.663 548.659 481.324L548.496 481.393L467.496 513.193C465.954 513.798 464.213 513.039 463.607 511.497C463.024 510.01 463.709 508.337 465.141 507.677L465.304 507.608L546.304 475.808Z" fill="#EF616D"/>
<path fill-rule="evenodd" clip-rule="evenodd" d="M584.405 477.307C585.947 476.703 587.688 477.463 588.293 479.005C588.876 480.493 588.19 482.164 586.757 482.824L586.595 482.893L505.495 514.693C503.953 515.298 502.212 514.538 501.607 512.996C501.024 511.508 501.71 509.836 503.143 509.177L503.305 509.107L584.405 477.307Z" fill="#EF616D"/>
<path fill-rule="evenodd" clip-rule="evenodd" d="M487.7 515.209C489.242 514.601 490.984 515.359 491.591 516.9C492.177 518.387 491.493 520.06 490.062 520.722L489.9 520.791L473.4 527.291C471.858 527.898 470.116 527.141 469.509 525.599C468.923 524.113 469.607 522.44 471.038 521.778L471.2 521.709L487.7 515.209Z" fill="#EF616D"/>
<path fill-rule="evenodd" clip-rule="evenodd" d="M519.198 561.41C520.739 560.801 522.482 561.557 523.09 563.098C523.677 564.584 522.995 566.257 521.564 566.921L521.402 566.99L493.302 578.09C491.761 578.699 490.019 577.943 489.41 576.402C488.823 574.916 489.505 573.243 490.936 572.579L491.098 572.51L519.198 561.41Z" fill="#EF616D"/>
<path fill-rule="evenodd" clip-rule="evenodd" d="M534.802 536.608C536.344 536.002 538.086 536.76 538.692 538.302C539.277 539.789 538.592 541.462 537.16 542.123L536.998 542.192L486.898 561.892C485.356 562.498 483.614 561.74 483.008 560.198C482.423 558.711 483.108 557.039 484.54 556.378L484.702 556.308L534.802 536.608Z" fill="#EF616D"/>
<path fill-rule="evenodd" clip-rule="evenodd" d="M505.706 527.107C507.249 526.503 508.99 527.264 509.594 528.807C510.176 530.294 509.489 531.966 508.056 532.625L507.894 532.694L479.794 543.694C478.251 544.298 476.51 543.537 475.906 541.994C475.324 540.506 476.011 538.835 477.444 538.176L477.606 538.107L505.706 527.107Z" fill="#EF616D"/>
<path fill-rule="evenodd" clip-rule="evenodd" d="M564.902 503.808C566.444 503.202 568.186 503.961 568.792 505.503C569.377 506.99 568.692 508.662 567.26 509.323L567.098 509.392L520.298 527.792C518.756 528.399 517.014 527.64 516.408 526.098C515.823 524.611 516.508 522.939 517.94 522.278L518.102 522.208L564.902 503.808Z" fill="#EF616D"/>
<path fill-rule="evenodd" clip-rule="evenodd" d="M626.2 454L621 473.2L621.5 654.3H632L631.5 473.1L626.2 454Z" fill="#EF616D"/>
<path fill-rule="evenodd" clip-rule="evenodd" d="M639.538 601.074C641.149 601.041 642.493 602.274 642.617 603.86L642.626 604.038L643.526 647.938C643.56 649.575 642.288 650.93 640.674 651.022L640.5 651.027H621.5C619.828 651.027 618.473 649.671 618.473 648C618.473 646.388 619.733 645.07 621.322 644.978L621.5 644.973L637.41 644.973L636.574 604.162C636.541 602.55 637.774 601.207 639.36 601.083L639.538 601.074Z" fill="#5928E5"/>
<path fill-rule="evenodd" clip-rule="evenodd" d="M623.5 535.6H629.3C631.8 535.6 633.8 533.6 633.8 531.2L634.1 487.3C634.1 484.8 632.1 482.8 629.7 482.8H623.9C621.4 482.8 619.4 484.8 619.4 487.2L619.1 531.1C619.1 533.6 621.1 535.6 623.5 535.6Z" fill="#5928E5"/>
<path fill-rule="evenodd" clip-rule="evenodd" d="M627.078 582.874C628.689 582.915 629.974 584.209 630.025 585.799L630.026 585.977L629.426 609.377C629.383 611.048 627.993 612.368 626.322 612.325C624.711 612.284 623.426 610.991 623.375 609.4L623.374 609.222L623.974 585.822C624.017 584.151 625.407 582.831 627.078 582.874Z" fill="#5928E5"/>
<path fill-rule="evenodd" clip-rule="evenodd" d="M574.4 412.4L571.8 432L596.4 611.5L606.8 610.1L582.2 430.6L574.4 412.4Z" fill="#EF616D"/>
<path fill-rule="evenodd" clip-rule="evenodd" d="M547.8 166.9L476.9 176.3C467.1 177.6 458.1 170.7 456.8 160.9L456.6 159.3C455.3 149.5 462.2 140.5 472 139.2L542.9 129.8L547.8 166.9Z" fill="#FFF7E6"/>
<path fill-rule="evenodd" clip-rule="evenodd" d="M542.506 126.826L471.606 136.226C460.277 137.729 452.271 148.042 453.583 159.348L453.823 161.272C455.344 172.738 465.853 180.792 477.294 179.274L548.194 169.874C549.836 169.656 550.991 168.149 550.774 166.507L545.874 129.407C545.657 127.764 544.149 126.608 542.506 126.826ZM540.318 133.168L544.432 164.32L476.506 173.326C468.35 174.408 460.856 168.665 459.774 160.506L459.577 158.928C458.492 150.75 464.235 143.257 472.394 142.174L540.318 133.168Z" fill="black"/>
<path fill-rule="evenodd" clip-rule="evenodd" d="M622.7 226.3C674.339 226.3 716.2 184.438 716.2 132.8C716.2 81.1612 674.339 39.2998 622.7 39.2998C571.061 39.2998 529.2 81.1612 529.2 132.8C529.2 184.438 571.061 226.3 622.7 226.3Z" fill="#FFF7E6"/>
<path fill-rule="evenodd" clip-rule="evenodd" d="M622.7 36.2998C569.405 36.2998 526.2 79.5043 526.2 132.8C526.2 186.095 569.405 229.3 622.7 229.3C675.995 229.3 719.2 186.095 719.2 132.8C719.2 79.5043 675.995 36.2998 622.7 36.2998ZM622.7 42.2998C672.682 42.2998 713.2 82.818 713.2 132.8C713.2 182.782 672.682 223.3 622.7 223.3C572.718 223.3 532.2 182.782 532.2 132.8C532.2 82.818 572.718 42.2998 622.7 42.2998Z" fill="black"/>
<path fill-rule="evenodd" clip-rule="evenodd" d="M622.7 198.9C659.206 198.9 688.8 169.306 688.8 132.8C688.8 96.2942 659.206 66.7002 622.7 66.7002C586.194 66.7002 556.6 96.2942 556.6 132.8C556.6 169.306 586.194 198.9 622.7 198.9Z" fill="#EF616D"/>
<path fill-rule="evenodd" clip-rule="evenodd" d="M846.5 600L846.3 499.1C846.3 490.5 853.2 483.5 861.8 483.5L1118.2 483C1126.8 483 1133.8 489.9 1133.8 498.5L1134 599.4C1134 608 1127.1 615 1118.5 615L862.1 615.5C853.5 615.5 846.5 608.6 846.5 600Z" fill="#EF616D"/>
<path fill-rule="evenodd" clip-rule="evenodd" d="M1112.3 487.7L867.4 488.2C859.496 488.2 853.1 494.791 853.1 502.9L853.3 594.007C853.3 602.029 859.715 608.6 867.6 608.6L1112.51 608.1C1120.36 608.227 1126.7 601.649 1126.7 593.5V571.3L1126.69 571.124C1126.6 569.549 1125.3 568.3 1123.7 568.3L1119.2 568.299L1119.1 527.5H1123.6C1125.26 527.5 1126.6 526.157 1126.6 524.5V502.3C1126.6 494.272 1120.19 487.7 1112.3 487.7ZM1112.31 493.7L1112.55 493.704C1116.97 493.841 1120.6 497.64 1120.6 502.3V521.5H1118.9C1115.63 521.5 1113.1 524.155 1113.1 527.4L1113.2 568.408L1113.2 568.626C1113.32 571.745 1115.88 574.3 1119 574.3L1120.7 574.299V593.5C1120.7 598.278 1117.16 602.034 1112.79 602.101L867.594 602.6C863.061 602.6 859.3 598.747 859.3 594L859.1 502.894C859.1 498.065 862.85 494.2 867.406 494.2L1112.31 493.7Z" fill="#FFF7E6"/>
</g>
<defs>
<filter id="filter0_d_0_10071" x="0" y="0" width="1489" height="753" filterUnits="userSpaceOnUse" color-interpolation-filters="sRGB">
<feFlood flood-opacity="0" result="BackgroundImageFix"/>
<feColorMatrix in="SourceAlpha" type="matrix" values="0 0 0 0 0 0 0 0 0 0 0 0 0 0 0 0 0 0 127 0" result="hardAlpha"/>
<feOffset dy="4"/>
<feGaussianBlur stdDeviation="2"/>
<feComposite in2="hardAlpha" operator="out"/>
<feColorMatrix type="matrix" values="0 0 0 0 0 0 0 0 0 0 0 0 0 0 0 0 0 0 0.25 0"/>
<feBlend mode="normal" in2="BackgroundImageFix" result="effect1_dropShadow_0_10071"/>
<feBlend mode="normal" in="SourceGraphic" in2="effect1_dropShadow_0_10071" result="shape"/>
</filter>
</defs>
</svg>
